<?xml version="1.0" encoding="utf-8"?>
<!-- Generator: Adobe Illustrator 21.1.0, SVG Export Plug-In . SVG Version: 6.00 Build 0)  -->
<svg version="1.1" id="Слой_1" xmlns="http://www.w3.org/2000/svg" xmlns:xlink="http://www.w3.org/1999/xlink" x="0px" y="0px"
	 viewBox="0 0 379 237.9" style="enable-background:new 0 0 379 237.9;" xml:space="preserve">
<style type="text/css">
	.st0{fill:#FFCA00;}
	.st1{fill:#0C308C;}
</style>
<rect y="17.6" class="st0" width="361.9" height="220.3"/>
<polyline class="st1" points="379,193.1 379,0 10.2,0 10.2,227.9 379,227.9 379,179.5 371.6,180.6 371.6,220.5 17.6,220.5 17.6,7.4 
	371.6,7.4 371.6,187.9 "/>
<path class="st1" d="M130,39.5v21.9c0,5.2-1.5,9.6-4.6,13.2c-1.5,1.8-3.5,3.1-5.8,4c-2.2,0.8-4.5,1.3-7.1,1.3c-2.5,0-4.9-0.4-7-1.3
	c-2.3-0.9-4.3-2.2-5.8-4c-3.1-3.6-4.6-8-4.6-13.2V39.5h8.4v0.7V61c0,3,0.7,5.5,2,7.5c0.8,1.2,1.8,2.1,3.1,2.7
	c1.2,0.6,2.5,0.8,3.9,0.8c1.4,0,2.7-0.3,3.9-0.8c1.3-0.6,2.4-1.5,3.1-2.7c1.3-2,2-4.5,2-7.5V39.5H130z"/>
<polygon class="st1" points="169.7,39.5 169.7,47.3 156.4,47.3 156.4,79.9 148,79.9 148,47.3 134.7,47.3 134.7,39.5 "/>
<polygon class="st1" points="184,39.5 184,72.1 203.9,72.1 203.9,79.9 175.5,79.9 175.5,39.5 "/>
<polygon class="st1" points="237.3,39.6 237.3,47.3 217.4,47.3 217.4,53.9 232.3,53.9 232.3,61.7 217.4,61.7 217.4,72.1 237.3,72.1 
	237.3,79.9 209,79.9 209,39.6 "/>
<polygon class="st1" points="277.5,39.5 277.5,47.3 264.2,47.3 264.2,79.9 255.8,79.9 255.8,47.3 242.5,47.3 242.5,39.5 "/>
<polygon class="st1" points="197.2,148.2 205.5,148.2 221.5,188.5 213.2,188.5 201.4,158.7 192.7,180.7 201.8,180.7 204.8,188.5 
	192,188.5 189.5,188.5 181.3,188.5 "/>
<path class="st1" d="M130.3,93.8v21.9c0,5.2-1.5,9.6-4.6,13.2c-1.5,1.8-3.5,3.1-5.8,4c-2.2,0.8-4.5,1.3-7.1,1.3
	c-2.5,0-4.9-0.4-7-1.3c-2.3-0.9-4.3-2.2-5.8-4c-3.1-3.6-4.6-8-4.6-13.2V93.8h8.4v0.7v20.8c0,3,0.7,5.5,2,7.5
	c0.8,1.2,1.8,2.1,3.1,2.7c1.2,0.6,2.5,0.8,3.9,0.8c1.4,0,2.7-0.3,3.9-0.8c1.3-0.6,2.4-1.5,3.1-2.7c1.3-2,2-4.5,2-7.5V93.8H130.3z"/>
<polygon class="st1" points="169.9,93.8 169.9,101.6 156.7,101.6 156.7,134.1 148.2,134.1 148.2,101.6 135,101.6 135,93.8 "/>
<path class="st1" d="M193.8,93.8c2.8,0,5.5,0.5,8.1,1.5c2.6,1,4.8,2.4,6.6,4.2c1.9,1.8,3.3,4,4.3,6.5c1,2.5,1.5,5.1,1.5,7.9
	c0,2.8-0.5,5.4-1.5,7.9c-1,2.5-2.4,4.7-4.3,6.5c-1.9,1.8-4,3.2-6.6,4.2c-2.6,1-5.2,1.5-8.1,1.5c-2.8,0-5.5-0.5-8.1-1.5
	c-2.5-1-4.7-2.4-6.6-4.2c-1.9-1.8-3.3-4-4.3-6.5c-1-2.5-1.5-5.1-1.5-7.9c0-2.8,0.5-5.4,1.5-7.9c1-2.5,2.4-4.7,4.3-6.5
	c1.9-1.8,4.1-3.2,6.6-4.2C188.2,94.3,190.9,93.8,193.8,93.8 M193.8,126.5c1.7,0,3.3-0.3,4.9-1c1.5-0.7,2.9-1.7,3.9-2.9
	c2-2.3,3-5.1,3-8.7s-1-6.4-3-8.7c-1.1-1.2-2.4-2.2-3.9-2.9c-1.5-0.7-3.2-1-4.9-1c-1.7,0-3.3,0.3-4.9,1c-1.5,0.7-2.9,1.6-3.9,2.9
	c-2,2.3-3,5.1-3,8.7s1,6.4,3,8.7c1.1,1.2,2.4,2.2,3.9,2.9C190.4,126.2,192.1,126.5,193.8,126.5"/>
<rect x="97.3" y="148.1" class="st1" width="8.4" height="40.3"/>
<polygon class="st1" points="124.6,148.1 124.6,180.6 144.5,180.6 144.5,188.4 116.1,188.4 116.1,148.1 "/>
<polygon class="st1" points="158,148.1 158,180.6 177.9,180.6 177.9,188.4 149.6,188.4 149.6,148.1 "/>
<path class="st1" d="M262.4,162.5c0.5,1.9,0.8,3.8,0.8,5.8c0,2.8-0.5,5.4-1.5,7.9c-1,2.5-2.4,4.7-4.3,6.5c-1.9,1.8-4,3.2-6.6,4.2
	c-2.6,1-5.3,1.5-8.1,1.5c-2.8,0-5.5-0.5-8.1-1.5c-2.6-1-4.8-2.4-6.6-4.2c-1.9-1.8-3.3-4-4.3-6.5c-1-2.5-1.5-5.1-1.5-7.9
	c0-2.8,0.5-5.5,1.5-8c1-2.5,2.4-4.7,4.3-6.5c1.9-1.8,4.1-3.2,6.6-4.2c2.6-1,5.2-1.5,8.1-1.5c4.5,0,8.5,1.2,12,3.5l-5,6.3
	c-2.1-1.5-4.4-2.2-7-2.2c-1.7,0-3.3,0.3-4.9,1c-1.5,0.7-2.9,1.6-3.9,2.9c-2,2.3-3,5.2-3,8.7s1,6.4,3,8.7c1.1,1.2,2.4,2.2,3.9,2.9
	c1.5,0.7,3.2,1,4.9,1c1.7,0,3.4-0.3,4.9-1c1.5-0.7,2.9-1.6,3.9-2.9c1.5-1.8,2.5-4,2.8-6.7h-8.2l-3.1-7.8H262.4z"/>
<polygon class="st1" points="297.5,148.1 297.5,155.9 277.6,155.9 277.6,162.5 292.4,162.5 292.4,170.3 277.6,170.3 277.6,180.7 
	297.5,180.7 297.5,188.4 269.1,188.4 269.1,148.1 "/>
<polygon class="st1" points="74.6,93.9 66.4,93.9 50.5,133.9 58.8,133.9 61.2,133.9 66.8,133.9 66.8,125.9 61.5,125.9 70.5,103.1 
	79.5,125.7 74.4,125.7 74.4,133.9 82.3,133.9 90.5,133.9 "/>
<polygon class="st1" points="82.5,148.1 80.1,148.1 74.4,148.1 74.4,156.2 79.7,156.2 70.7,178.1 61.7,156.4 66.8,156.4 66.8,148.1 
	58.8,148.1 50.6,148.1 66.5,188.4 74.9,188.4 90.8,148.1 "/>
<path class="st1" d="M89.5,51.8c-1-2.5-2.5-4.7-4.3-6.5c-1.9-1.8-4.1-3.2-6.6-4.2c-2.6-1-5.3-1.5-8.1-1.5c-2.9,0-5.6,0.5-8.1,1.5
	c-2.5,1-4.7,2.4-6.6,4.2c-1.9,1.8-3.3,4-4.3,6.5c-1,2.5-1.6,5.2-1.6,8c0,2.8,0.5,5.4,1.6,8c1,2.5,2.5,4.7,4.3,6.5
	c1.9,1.8,4.1,3.2,6.6,4.3c2.6,1,5.3,1.5,8.1,1.5c2.9,0,5.5-0.5,8.1-1.5c2.6-1,4.8-2.4,6.6-4.3c1.9-1.8,3.3-4,4.3-6.5
	c1-2.5,1.6-5.2,1.6-8C91.1,57,90.6,54.3,89.5,51.8z M81.6,64.1c-0.1,0.2-0.1,0.4-0.2,0.7c-0.2,0.4-0.3,0.8-0.5,1.2l0,0.1l0,0
	c-0.5,1-1.2,2-1.9,2.8c-0.9,1-1.9,1.7-3.1,2.3c-0.2,0.1-0.3,0.2-0.5,0.3c-1.2,0.5-2.4,0.8-3.7,0.9c-0.4,0-0.8,0.1-1.2,0.1h0h0
	c0,0,0,0,0,0c-0.4,0-0.8,0-1.2-0.1c-1.3-0.1-2.5-0.4-3.7-0.9c-1.6-0.7-2.9-1.7-4-2.9c-0.7-0.8-1.2-1.6-1.7-2.5l-2,0.1h-2.9l4.3-10.6
	c0.5-1.6,1.3-3,2.4-4.3c1.1-1.2,2.4-2.2,4-2.9c1.6-0.7,3.2-1,4.9-1c1.7,0,3.4,0.3,4.9,1c1.6,0.7,2.9,1.6,4,2.9
	c0.4,0.5,0.7,1,0.9,1.4c0.2,0.3,0.4,0.7,0.6,1.1l2-0.1h2.9L81.6,64.1z"/>
</svg>
