<svg xmlns="http://www.w3.org/2000/svg" viewBox="0 0 438.56 359"><defs><style>.cls-1{fill:#f6bd1f;}.cls-2{fill:none;stroke:#243878;stroke-linecap:round;stroke-linejoin:round;stroke-width:10px;}</style></defs><title>Ресурс 15</title><g id="Слой_2" data-name="Слой 2"><g id="Слой_2-2" data-name="Слой 2"><polygon class="cls-1" points="0 282.44 74.87 359 74.87 282.44 0 282.44"/><path class="cls-1" d="M383,135.42,288.79,262.84V24.6H0V282.44l288.79-19.6-60.32,30.81,33.15,5.95.64.47-4.54,25.14-23.93,4.42a15.62,15.62,0,0,0,1.7-7.07v-3.13a15.71,15.71,0,0,0-15.71-15.71H150.23a15.71,15.71,0,0,0-15.71,15.71v3.13a15.71,15.71,0,0,0,15.71,15.71h36.83L74.87,359H288.79l-.23-39.48-2.83.52,2.19-1-12.83-9.49,13.47,10L334.76,257l8.08-10.94,67.09-90.76Z"/><polygon class="cls-1" points="279.14 286.1 288.79 262.84 177.14 185.43 0 282.44 74.87 359 239.14 351.43 273.14 320.72 279.14 286.1"/><polyline class="cls-2" points="309.75 299.92 309.98 339.39 96.05 339.39 96.06 262.83 21.18 262.83 21.18 5 309.98 5 309.98 243.24"/><line class="cls-2" x1="60.03" y1="64.11" x2="141.09" y2="64.11"/><line class="cls-2" x1="170.95" y1="64.11" x2="190.85" y2="64.11"/><line class="cls-2" x1="21.18" y1="116.46" x2="309.98" y2="116.46"/><line class="cls-2" x1="21.18" y1="190.77" x2="309.98" y2="190.77"/><line class="cls-2" x1="21.18" y1="153.62" x2="309.98" y2="153.62"/><line class="cls-2" x1="21.18" y1="227.93" x2="309.98" y2="227.93"/><line class="cls-2" x1="63.4" y1="116.46" x2="63.4" y2="227.93"/><line class="cls-2" x1="100.56" y1="116.46" x2="100.56" y2="227.93"/><line class="cls-2" x1="21.18" y1="262.83" x2="96.05" y2="339.39"/><polyline class="cls-2" points="309.11 244.41 404.16 115.81 431.11 135.73 309.75 299.92 282.8 280 309.11 244.41"/><path class="cls-2" d="M283.44,280.47l-4.85,26.86a3.39,3.39,0,0,0,4.84,3.8l25.68-11.69Z"/><rect class="cls-2" x="331.95" y="208.53" width="33.51" height="20.99" transform="translate(198.49 -164.38) rotate(36.47)"/><path class="cls-2" d="M425.11,131.3a9.16,9.16,0,0,0,.72-.79l5.9-8a9.4,9.4,0,1,0-15.11-11.17l-5.9,8a9.16,9.16,0,0,0-.55.92Z"/><path class="cls-2" d="M426,142.47a24.7,24.7,0,0,1,.86,28.82c-10.08,15.75-22.72,22.85-33,36.8s-11.15,25-11.15,25"/><line class="cls-2" x1="278.71" y1="311.64" x2="272.82" y2="318.67"/><rect class="cls-2" x="155.7" y="284.13" width="100.97" height="34.54" rx="15.71" ry="15.71"/></g></g></svg>