<svg xmlns="http://www.w3.org/2000/svg" viewBox="0 0 413.8 414.44"><defs><style>.cls-1{fill:#f9c610;}.cls-2{fill:none;stroke:#243878;stroke-linecap:round;stroke-linejoin:round;stroke-width:10px;}</style></defs><title>Ресурс 12</title><g id="Слой_2" data-name="Слой 2"><g id="Слой_2-2" data-name="Слой 2"><path class="cls-1" d="M357.34,63.08a142.4,142.4,0,1,0-2.52,201.36A142.4,142.4,0,0,0,357.34,63.08ZM333.25,242.33a111.51,111.51,0,1,1,2-157.68A111.51,111.51,0,0,1,333.25,242.33Z"/><path class="cls-1" d="M133.5,234.74,18,347.36c-22.5,21.94-22.15,43.52-8.75,57.25s35,14.63,57.45-7.32L182.2,284.68"/><line class="cls-1" x1="46.25" y1="382.32" x2="104.77" y2="324.59"/><line class="cls-1" x1="121.53" y1="307.05" x2="138.69" y2="290.11"/><path class="cls-1" d="M191.52,141.18a17.84,17.84,0,0,0-3.48-2.42c-4.31-1.81-11-2-11.44-8.19-.33-4.5,6.8-5.86,10.12-6.06,5.72-.34,7.9,1.06,8.65,6.78.17,1.28-.33,2.95,0,3.74s3.31,3.26,3.31,3.27"/><path class="cls-1" d="M257.24,101.54s-28,.7-37.27,4.53-20.22,34.75-20.22,34.75-9.63,6.36-11.39,9c-5.91,8.84.15,44.06,7.67,53.35,5.31,6.55,61.23,5.63,61.23,5.63"/><path class="cls-1" d="M257.17,147.29s-33.2.07-38.8-1c-.65-.13-2.27-19.41,6.9-27.7,6.73-3.46,31.9-3.16,31.9-3.16"/><path class="cls-1" d="M257.24,180.79s-29.49-.23-33.31.18-1.65,5.72-.64,9,2,5.32,4.86,6.13,29.12,1.23,29.12,1.23"/><path class="cls-1" d="M196.56,206.36v9.55a7.33,7.33,0,0,0,7.06,7.56h7a7.33,7.33,0,0,0,7.06-7.56v-7.59"/><path class="cls-1" d="M186,162.33h19.18a6.21,6.21,0,0,1,6.21,6.21v1.22a6.21,6.21,0,0,1-6.21,6.21h-9.1"/><path class="cls-1" d="M317.44,145.93s5.79-6.57,7.18-7.16c4.31-1.81,11-2,11.44-8.19.33-4.5-6.8-5.86-10.12-6.06-5.72-.34-9.49-.91-10.24,4.81-.17,1.28-2.12,3.47-2.45,4.26s-7,8-7,8"/><path class="cls-1" d="M255.43,101.54s28,.7,37.27,4.53,20.22,34.75,20.22,34.75,9.63,6.36,11.39,9c5.91,8.84-.15,44.06-7.67,53.35-5.31,6.55-61.23,5.63-61.23,5.63"/><path class="cls-1" d="M255.49,147.29s33.2.07,38.8-1c.65-.13,2.27-19.41-6.9-27.7-6.73-3.46-31.9-3.16-31.9-3.16"/><path class="cls-1" d="M255.43,180.79s29.49-.23,33.31.18,1.65,5.72.64,9-2,5.32-4.86,6.13-29.12,1.23-29.12,1.23"/><path class="cls-1" d="M316,206.36v9.55a7.33,7.33,0,0,1-7.06,7.56h-7a7.33,7.33,0,0,1-7.06-7.56v-7.59"/><path class="cls-1" d="M326.69,162.33H307.5a6.21,6.21,0,0,0-6.21,6.21v1.22A6.21,6.21,0,0,0,307.5,176h9.1"/><circle class="cls-2" cx="266.41" cy="147.4" r="142.4" transform="translate(-27.23 227.87) rotate(-44.28)"/><circle class="cls-2" cx="266.41" cy="147.4" r="111.51" transform="translate(-27.23 227.87) rotate(-44.28)"/><path class="cls-2" d="M142,219.64,26.48,332.25C4,354.2,4.33,375.77,17.72,389.51s35,14.63,57.45-7.32L190.65,269.57"/><line class="cls-2" x1="54.7" y1="367.21" x2="113.22" y2="309.49"/><line class="cls-2" x1="129.98" y1="291.94" x2="147.15" y2="275"/><path class="cls-2" d="M200,126.08a17.84,17.84,0,0,0-3.48-2.42c-4.31-1.81-11-2-11.44-8.19-.33-4.5,6.8-5.86,10.12-6.06,5.72-.34,7.9,1.06,8.65,6.78.17,1.28-.33,2.95,0,3.74s3.31,3.26,3.31,3.27"/><path class="cls-2" d="M265.69,86.43s-28,.7-37.27,4.53-20.22,34.75-20.22,34.75-9.63,6.36-11.39,9c-5.91,8.84.15,44.06,7.67,53.35,5.31,6.55,61.23,5.63,61.23,5.63"/><path class="cls-2" d="M265.63,132.18s-33.2.07-38.8-1c-.65-.13-2.27-19.41,6.9-27.7,6.73-3.46,31.9-3.16,31.9-3.16"/><path class="cls-2" d="M265.69,165.69s-29.49-.23-33.31.18-1.65,5.72-.64,9,2,5.32,4.86,6.13,29.12,1.23,29.12,1.23"/><path class="cls-2" d="M205,191.25v9.55a7.33,7.33,0,0,0,7.06,7.56h7a7.33,7.33,0,0,0,7.06-7.56v-7.59"/><path class="cls-2" d="M194.43,147.22h19.18a6.21,6.21,0,0,1,6.21,6.21v1.22a6.21,6.21,0,0,1-6.21,6.21h-9.1"/><path class="cls-2" d="M329.6,126.08a17.84,17.84,0,0,1,3.48-2.42c4.31-1.81,11-2,11.44-8.19.33-4.5-6.8-5.86-10.12-6.06-5.72-.34-7.9,1.06-8.65,6.78-.17,1.28.33,2.95,0,3.74s-3.31,3.26-3.31,3.27"/><path class="cls-2" d="M263.88,86.43s28,.7,37.27,4.53,20.22,34.75,20.22,34.75,9.63,6.36,11.39,9c5.91,8.84-.15,44.06-7.67,53.35-5.31,6.55-61.23,5.63-61.23,5.63"/><path class="cls-2" d="M263.95,132.18s33.2.07,38.8-1c.65-.13,2.27-19.41-6.9-27.7-6.73-3.46-31.9-3.16-31.9-3.16"/><path class="cls-2" d="M263.88,165.69s29.49-.23,33.31.18,1.65,5.72.64,9-2,5.32-4.86,6.13-29.12,1.23-29.12,1.23"/><path class="cls-2" d="M324.44,191.25v9.55a7.33,7.33,0,0,1-7.06,7.56h-7a7.33,7.33,0,0,1-7.06-7.56v-7.59"/><path class="cls-2" d="M335.14,147.22H316a6.21,6.21,0,0,0-6.21,6.21v1.22a6.21,6.21,0,0,0,6.21,6.21h9.1"/></g></g></svg>