<svg xmlns="http://www.w3.org/2000/svg" viewBox="0 0 952.37 610.38"><defs><style>.cls-1{fill:none;}.cls-2{fill:#f8bf00;}.cls-3{fill:#1e3283;}.cls-4{fill:#f6bd1f;}</style></defs><title>bus</title><g id="Слой_2" data-name="Слой 2"><g id="Слой_1-2" data-name="Слой 1"><path class="cls-1" d="M924.91,42.69a15.23,15.23,0,0,0-15.23-15.23h-594V57.92H924.91Z"/><path class="cls-1" d="M924.91,88.38h-13.2a41.72,41.72,0,0,1,2.13,13.17V210.23h11.07Z"/><rect class="cls-1" x="913.84" y="301.61" width="11.07" height="30.46"/><path class="cls-1" d="M201,27.46h-.13a45.5,45.5,0,0,0-40.74,25.25L157.54,58c.65,0,1.3,0,2,0H285.22V27.46Z"/><rect class="cls-1" x="913.84" y="240.69" width="11.07" height="30.46"/><rect class="cls-1" x="913.84" y="362.54" width="11.07" height="30.46"/><path class="cls-1" d="M924.91,438.69V423.46H913.84v29.87A15.22,15.22,0,0,0,924.91,438.69Z"/><path class="cls-2" d="M911.71,88.38H833.53V210.23h80.31V101.55A41.72,41.72,0,0,0,911.71,88.38Z"/><path class="cls-2" d="M132.92,316.84a15.23,15.23,0,0,0-15.23-15.23H72v30.47h45.7A15.23,15.23,0,0,0,132.92,316.84Z"/><path class="cls-2" d="M862.77,484.38a106,106,0,0,1-13.59,38.8h19c23.59,0,43-17.07,45.43-39-1.29.1-2.58.17-3.9.17Z"/><path class="cls-2" d="M239.54,442.7A27.3,27.3,0,1,0,266.83,470,27.34,27.34,0,0,0,239.54,442.7Z"/><rect class="cls-2" x="909.68" y="301.61" width="4.16" height="30.46"/><path class="cls-2" d="M681.22,240.69H468V453.92H652a106.2,106.2,0,0,1,29.24-59.23Z"/><path class="cls-2" d="M254.15,363.58A106,106,0,0,1,285.22,373V240.69H72v30.46h45.7a45.7,45.7,0,0,1,0,91.39H72V393h45.7v30.46H72v15.23a15.23,15.23,0,0,0,15.23,15.23h46.92a106.07,106.07,0,0,1,120-90.34Z"/><path class="cls-2" d="M909.68,362.54a30.46,30.46,0,0,1-30.46-30.46V301.61a30.46,30.46,0,0,1,30.46-30.46h4.16V240.69H711.68V373a106.21,106.21,0,0,1,151.09,80.95h46.91a15,15,0,0,0,4.16-.59V423.46H879.22V393h34.62V362.54Z"/><rect class="cls-2" x="711.68" y="88.38" width="91.38" height="121.85"/><path class="cls-2" d="M757.38,497.3a27.3,27.3,0,1,0-27.3-27.3A27.33,27.33,0,0,0,757.38,497.3Z"/><rect class="cls-2" x="589.84" y="88.38" width="91.38" height="121.85"/><path class="cls-2" d="M757.37,545.3a76.15,76.15,0,1,0-76.15-76.15A76.15,76.15,0,0,0,757.37,545.3Zm0-129.08A53.78,53.78,0,1,1,703.59,470,53.84,53.84,0,0,1,757.38,416.22Z"/><rect class="cls-2" x="467.99" y="88.38" width="91.38" height="121.85"/><path class="cls-2" d="M437.53,453.92V88.38H315.68V394.69a106.22,106.22,0,0,1,29.25,59.23Z"/><path class="cls-2" d="M239.53,393a76.15,76.15,0,1,0,76.15,76.15A76.15,76.15,0,0,0,239.53,393Zm0,130.78A53.78,53.78,0,1,1,293.31,470,53.84,53.84,0,0,1,239.54,523.78Z"/><path class="cls-2" d="M742.24,574.64A106.47,106.47,0,0,1,652,484.38h-307a106,106,0,0,1-13.59,38.8H610.45c6.71,44.66,43.47,79.74,90.25,86.16,42.21,5.78,82.18-12.91,104.15-44.8a105.83,105.83,0,0,1-47.34,11.2A106.92,106.92,0,0,1,742.24,574.64Z"/><path class="cls-2" d="M157.54,58,81.41,210.23H285.22V57.94H159.5C158.84,57.94,158.19,58,157.54,58Z"/><path class="cls-2" d="M224.39,574.64a106.48,106.48,0,0,1-90.26-90.26H87.22a45.69,45.69,0,0,1-45.69-45.69V225.46a15.28,15.28,0,0,1,1.53-6.81L117.49,69.92a73.59,73.59,0,0,0-26.11,28.2L1.53,269.52A14,14,0,0,0,0,276V479.56c0,24.09,20.46,43.62,45.7,43.62H92.6c6.72,44.66,43.48,79.74,90.26,86.16,42.21,5.78,82.18-12.91,104.15-44.8a105.84,105.84,0,0,1-47.35,11.2A107,107,0,0,1,224.39,574.64Z"/><path class="cls-3" d="M808.2,559.36a103.14,103.14,0,0,0,37.49-36.18H821.24A98.43,98.43,0,0,1,808.2,559.36Z"/><path class="cls-3" d="M157.48,51.37A48.52,48.52,0,0,1,200.9,24.46h87.32V57.94h24.46V24.46h597a18.25,18.25,0,0,1,18.23,18.23V60.92H884.76a44.87,44.87,0,0,1,25.82,24.46h17.33V213.23H913.84v24.46h14.07v36.46H913.84v24.46h14.07v36.47H913.84v24.46h14.07V396H913.84v24.46h14.07v18.23a18.24,18.24,0,0,1-14.07,17.73v23.14c0,.54,0,1.08,0,1.62a42.75,42.75,0,0,0,38.57-42.49v-396A42.74,42.74,0,0,0,909.68,0H200.78A72.8,72.8,0,0,0,135.6,40.43L122.22,67.18a78.42,78.42,0,0,1,31.9-9.08Z"/><path class="cls-3" d="M327.85,523.18H303.4a98.43,98.43,0,0,1-13,36.18,103.14,103.14,0,0,0,37.49-36.18Z"/><path class="cls-3" d="M327.85,523.18A103.52,103.52,0,0,0,342,484l.37-2.58H654.58L655,484a103.44,103.44,0,0,0,87.71,87.71,104.37,104.37,0,0,0,14.85,1.07,103.16,103.16,0,0,0,50.69-13.38,98.43,98.43,0,0,0,13-36.18h24.45A103.52,103.52,0,0,0,859.8,484l.37-2.58h49.51c1.39,0,2.76-.07,4.12-.2,0-.54,0-1.08,0-1.62V456.42a17.88,17.88,0,0,1-4.16.5H860.16l-.36-2.58A103.16,103.16,0,0,0,713,375.68l-4.3,2.05v-140H913.84V213.23H830.53V85.38h80.05a44.87,44.87,0,0,0-25.82-24.46H312.68v-3H288.22V213.23H76.55l2.17-4.34L154.12,58.1a78.42,78.42,0,0,0-31.9,9.08L45.74,220a12.23,12.23,0,0,0-1.21,5.44V438.69a42.74,42.74,0,0,0,42.69,42.69h49.51l.37,2.58a103.47,103.47,0,0,0,87.72,87.71,102.9,102.9,0,0,0,65.54-12.31,98.43,98.43,0,0,0,13-36.18ZM708.68,210.23V85.38h97.39V213.23H708.68ZM757.37,390a79.15,79.15,0,1,1,0,158.3h0a79.15,79.15,0,1,1,0-158.3ZM586.84,210.23V85.38h97.38V213.23H586.84Zm-121.85,0V85.38h97.39V213.23H465Zm0,243.69V237.69H684.22V395.91l-.86.88A102.51,102.51,0,0,0,655,454.35l-.37,2.57H465ZM312.68,394.69V85.38H440.53V456.92h-98.2l-.37-2.57a102.62,102.62,0,0,0-28.42-57.56l-.86-.88ZM69,332.08V298.61h48.7a18.24,18.24,0,0,1,0,36.47H69Zm67.75,124.84H87.22A18.25,18.25,0,0,1,69,438.69V420.46h45.7V396H69V359.54h48.7a42.7,42.7,0,0,0,0-85.39H69V237.69H288.22v140l-4.29-2.05a103,103,0,0,0-30.2-9.13,104.57,104.57,0,0,0-14.55-1,103.22,103.22,0,0,0-102.07,88.82ZM239.53,548.3h0a79.15,79.15,0,1,1,79.15-79.15A78.68,78.68,0,0,1,239.53,548.3Z"/><path class="cls-3" d="M882.22,301.61v30.47a27.49,27.49,0,0,0,27.46,27.46h4.16V335.08h-7.16V298.61h7.16V274.15h-4.16A27.49,27.49,0,0,0,882.22,301.61Z"/><rect class="cls-3" x="882.22" y="396" width="31.62" height="24.46"/><path class="cls-4" d="M239.18,364a106.05,106.05,0,0,1,14.76,1,104.81,104.81,0,0,1,30.64,9.26l2.14,1V239.19H70.49v33.46h47.2a44.2,44.2,0,0,1,0,88.39H70.49V394.5h45.7V422H70.49v16.73a16.75,16.75,0,0,0,16.73,16.73h48.22l.18-1.29A104.74,104.74,0,0,1,239.18,364Zm-105,89.9H87.22A15.23,15.23,0,0,1,72,438.69V423.46h45.7V393H72V362.54h45.7a45.7,45.7,0,0,0,0-91.39H72V240.69H285.22V373a106,106,0,0,0-31.07-9.39,106.07,106.07,0,0,0-120,90.34Z"/><path class="cls-4" d="M880,59.42a47.93,47.93,0,0,0-11.83-1.48h-554v1.48Z"/><path class="cls-4" d="M804.57,86.88H710.18V211.73h94.39Zm-1.5,123.35H711.68V88.38h91.39Z"/><path class="cls-4" d="M239.53,391.5a77.65,77.65,0,1,0,77.65,77.65A77.73,77.73,0,0,0,239.53,391.5Zm0,153.8a76.15,76.15,0,1,1,76.15-76.15A76.24,76.24,0,0,1,239.53,545.3Z"/><path class="cls-4" d="M757.51,574.24a107.33,107.33,0,0,1-15.06-1.08,105,105,0,0,1-89-89l-.18-1.29H343.63l-.19,1.29a105,105,0,0,1-13.85,39h1.75a106,106,0,0,0,13.59-38.8H652a106.42,106.42,0,0,0,152.87,80.16c.58-.84,1.14-1.69,1.7-2.54A104.67,104.67,0,0,1,757.51,574.24Z"/><path class="cls-4" d="M653.46,454.13a104,104,0,0,1,28.83-58.39l.43-.44V239.19H466.49V455.42H653.28ZM468,453.92V240.69H681.22v154A106.2,106.2,0,0,0,652,453.92Z"/><path class="cls-4" d="M909.68,271.15a30.46,30.46,0,0,0-30.46,30.46v30.47a30.46,30.46,0,0,0,30.46,30.46h4.16V361h-4.16a29,29,0,0,1-29-29V301.61a29,29,0,0,1,29-29h4.16v-1.5Z"/><path class="cls-4" d="M909.68,453.92H862.77A106.17,106.17,0,0,0,711.68,373V240.69H913.84v-1.5H710.18V375.35l2.15-1A103.81,103.81,0,0,1,757.52,364a104.79,104.79,0,0,1,103.77,90.12l.18,1.29h48.21a16.76,16.76,0,0,0,4.16-.54v-1.55A15,15,0,0,1,909.68,453.92Z"/><path class="cls-4" d="M239.67,574.24h0a107.08,107.08,0,0,1-15-1.08,105,105,0,0,1-89-89l-.19-1.29H87.22A44.24,44.24,0,0,1,43,438.69V225.46a13.73,13.73,0,0,1,1.38-6.15L119.89,68.47c-.81.47-1.61,1-2.4,1.45L43.06,218.65a15.28,15.28,0,0,0-1.53,6.81V438.69a45.69,45.69,0,0,0,45.69,45.69h46.91A106.43,106.43,0,0,0,287,564.54c.58-.84,1.14-1.69,1.69-2.54A104.57,104.57,0,0,1,239.67,574.24Z"/><path class="cls-4" d="M909.68,482.88H861.47l-.18,1.29a105.05,105.05,0,0,1-13.86,39h1.75a106,106,0,0,0,13.59-38.8h46.91c1.32,0,2.61-.07,3.9-.17,0-.51.09-1,.13-1.52C912.38,482.81,911,482.88,909.68,482.88Z"/><path class="cls-4" d="M832,211.73h81.81v-1.5H833.53V88.38h78.18c-.16-.5-.34-1-.53-1.5H832Z"/><path class="cls-4" d="M560.88,86.88H466.49V211.73h94.39Zm-1.5,123.35H468V88.38h91.39Z"/><polygon class="cls-4" points="880.72 394.5 913.84 394.5 913.84 393 879.22 393 879.22 423.46 913.84 423.46 913.84 421.96 880.72 421.96 880.72 394.5"/><path class="cls-4" d="M343.44,454.13l.19,1.29H439V86.88H314.18V395.3l.43.44A104,104,0,0,1,343.44,454.13ZM315.68,88.38H437.53V453.92h-92.6a106.22,106.22,0,0,0-29.25-59.23Z"/><path class="cls-4" d="M682.72,86.88H588.34V211.73h94.38Zm-1.5,123.35H589.84V88.38h91.38Z"/><path class="cls-4" d="M286.72,211.73V57.94h-1.5V210.23H81.41L157.54,58l-1.71.05L79,211.73Z"/><path class="cls-4" d="M134.42,316.84a16.76,16.76,0,0,0-16.73-16.73H70.49v33.47h47.2A16.76,16.76,0,0,0,134.42,316.84ZM72,301.61h45.7a15.24,15.24,0,0,1,0,30.47H72Z"/><path class="cls-4" d="M757.37,546.8a77.65,77.65,0,1,0-77.65-77.65A77.74,77.74,0,0,0,757.37,546.8Zm0-153.8a76.15,76.15,0,1,1-76.15,76.15A76.15,76.15,0,0,1,757.37,393Z"/><polygon class="cls-4" points="909.68 332.07 909.68 301.61 913.84 301.61 913.84 300.11 908.18 300.11 908.18 333.57 913.84 333.57 913.84 332.07 909.68 332.07"/><path class="cls-4" d="M286.72,211.73H79L155.83,58l-1.71.08L78.72,208.89l-2.17,4.34H288.22V57.94h-1.5Z"/><path class="cls-4" d="M314.18,59.42V57.94h-1.5v3H884.76a48.22,48.22,0,0,0-4.78-1.5Z"/><path class="cls-4" d="M832,211.73V86.88h79.15q-.28-.75-.6-1.5H830.53V213.23h83.31v-1.5Z"/><path class="cls-4" d="M909.68,481.38H860.17L859.8,484a103.52,103.52,0,0,1-14.11,39.22h1.74a105.05,105.05,0,0,0,13.86-39l.18-1.29h48.21c1.36,0,2.7-.07,4-.19,0-.5.07-1,.09-1.51C912.44,481.31,911.07,481.38,909.68,481.38Z"/><path class="cls-4" d="M701.43,525.09a78.68,78.68,0,0,0,55.94,23.21h0a79.24,79.24,0,1,0-55.94-23.21ZM757.37,391.5a77.65,77.65,0,1,1-77.65,77.65A77.74,77.74,0,0,1,757.37,391.5Z"/><path class="cls-4" d="M681.22,213.23h3V85.38H586.84V213.23h94.38ZM588.34,86.88h94.38V211.73H588.34Z"/><path class="cls-4" d="M342,454.35l.37,2.57h98.2V85.38H312.68V395.91l.86.88A102.62,102.62,0,0,1,342,454.35ZM314.18,86.88H439V455.42h-95.4l-.19-1.29a104,104,0,0,0-28.83-58.39l-.43-.44Z"/><path class="cls-4" d="M652,456.92h2.6l.37-2.57a102.51,102.51,0,0,1,28.41-57.56l.86-.88V237.69H465V456.92H652ZM466.49,239.19H682.72V395.3l-.43.44a104,104,0,0,0-28.83,58.39l-.18,1.29H466.49Z"/><polygon class="cls-4" points="880.72 394.5 880.72 421.96 913.84 421.96 913.84 420.46 882.22 420.46 882.22 396 913.84 396 913.84 394.5 880.72 394.5"/><path class="cls-4" d="M117.69,335.08a18.24,18.24,0,0,0,0-36.47H69v36.47h48.7Zm-47.2-35h47.2a16.74,16.74,0,0,1,0,33.47H70.49Z"/><path class="cls-4" d="M171.89,390.59a103.15,103.15,0,0,1,67.29-25.07,104.57,104.57,0,0,1,14.55,1,103,103,0,0,1,30.2,9.13l4.29,2.05v-140H69v36.46h48.7a42.7,42.7,0,0,1,0,85.39H69V396h45.7v24.46H69v18.23a18.25,18.25,0,0,0,18.23,18.23h49.52l.37-2.58A103.1,103.1,0,0,1,171.89,390.59Zm-36.27,63.54-.18,1.29H87.22a16.75,16.75,0,0,1-16.73-16.73V422h45.7V394.5H70.49V361h47.2a44.2,44.2,0,0,0,0-88.39H70.49V239.19H286.72V375.35l-2.14-1a104.81,104.81,0,0,0-30.64-9.26,106.05,106.05,0,0,0-14.76-1,104.74,104.74,0,0,0-103.56,90.11Z"/><path class="cls-4" d="M559.38,213.23h3V85.38H465V213.23h94.39ZM466.49,86.88h94.39V211.73H466.49Z"/><path class="cls-4" d="M909.68,272.65a29,29,0,0,0-29,29v30.47a29,29,0,0,0,29,29h4.16v-1.5h-4.16a27.49,27.49,0,0,1-27.46-27.46V301.61a27.49,27.49,0,0,1,27.46-27.46h4.16v-1.5Z"/><path class="cls-4" d="M803.07,213.23h3V85.38H708.68V213.23h94.39ZM710.18,86.88h94.39V211.73H710.18Z"/><path class="cls-4" d="M909.68,455.42H861.47l-.18-1.29a104.68,104.68,0,0,0-149-79.81l-2.15,1V239.19H913.84v-1.5H708.68v140l4.3-2.05a102.21,102.21,0,0,1,44.54-10.17A103.26,103.26,0,0,1,859.8,454.34l.36,2.58h49.52a17.88,17.88,0,0,0,4.16-.5v-1.54A16.76,16.76,0,0,1,909.68,455.42Z"/><polygon class="cls-4" points="906.68 298.61 906.68 301.61 906.68 332.07 906.68 335.07 909.68 335.07 913.84 335.07 913.84 333.57 908.18 333.57 908.18 300.11 913.84 300.11 913.84 298.61 909.68 298.61 906.68 298.61"/><path class="cls-4" d="M757.51,572.74a104.37,104.37,0,0,1-14.85-1.07A103.44,103.44,0,0,1,655,484l-.37-2.58H342.33L342,484a103.52,103.52,0,0,1-14.11,39.22h1.74a105,105,0,0,0,13.85-39l.19-1.29H653.28l.18,1.29a105,105,0,0,0,89,89,107.33,107.33,0,0,0,15.06,1.08,104.67,104.67,0,0,0,49-12.24q.84-1.31,1.65-2.64A103.16,103.16,0,0,1,757.51,572.74Z"/><path class="cls-4" d="M239.53,390a79.15,79.15,0,0,0,0,158.3h0a79.15,79.15,0,1,0,0-158.3Zm0,156.8a77.65,77.65,0,1,1,77.65-77.65A77.86,77.86,0,0,1,239.53,546.8Z"/><path class="cls-4" d="M43,225.46V438.69a44.24,44.24,0,0,0,44.19,44.19h48.21l.19,1.29a105,105,0,0,0,89,89,107.08,107.08,0,0,0,15,1.08h0a104.57,104.57,0,0,0,49-12.24c.57-.87,1.12-1.75,1.66-2.64A103.46,103.46,0,0,1,137.1,484l-.37-2.58H87.22a42.74,42.74,0,0,1-42.69-42.69V225.43A12.23,12.23,0,0,1,45.74,220L122.22,67.18c-.78.42-1.56.85-2.33,1.29L44.41,219.31A13.73,13.73,0,0,0,43,225.46Z"/><path class="cls-3" d="M239.54,419.22A50.78,50.78,0,1,0,290.31,470,50.84,50.84,0,0,0,239.54,419.22Zm0,81.08A30.3,30.3,0,1,1,269.83,470,30.34,30.34,0,0,1,239.54,500.3Z"/><path class="cls-4" d="M239.54,416.22A53.78,53.78,0,1,0,293.31,470,53.85,53.85,0,0,0,239.54,416.22Zm0,106.06A52.28,52.28,0,1,1,291.81,470,52.34,52.34,0,0,1,239.54,522.28Z"/><path class="cls-4" d="M239.54,441.2A28.8,28.8,0,1,0,268.33,470,28.84,28.84,0,0,0,239.54,441.2Zm0,56.1A27.3,27.3,0,1,1,266.83,470,27.34,27.34,0,0,1,239.54,497.3Z"/><path class="cls-4" d="M239.54,417.72A52.28,52.28,0,1,0,291.81,470,52.34,52.34,0,0,0,239.54,417.72Zm0,103.06A50.78,50.78,0,1,1,290.31,470,50.84,50.84,0,0,1,239.54,520.78Z"/><path class="cls-4" d="M239.54,439.7A30.3,30.3,0,1,0,269.83,470,30.35,30.35,0,0,0,239.54,439.7Zm0,59.1A28.8,28.8,0,1,1,268.33,470,28.84,28.84,0,0,1,239.54,498.8Z"/><path class="cls-3" d="M757.38,520.78A50.78,50.78,0,1,0,706.59,470,50.83,50.83,0,0,0,757.38,520.78Zm0-81.08a30.3,30.3,0,1,1-30.3,30.3A30.34,30.34,0,0,1,757.38,439.7Z"/><path class="cls-4" d="M757.38,523.78A53.78,53.78,0,1,0,703.59,470,53.83,53.83,0,0,0,757.38,523.78Zm0-106.06A52.28,52.28,0,1,1,705.09,470,52.34,52.34,0,0,1,757.38,417.72Z"/><path class="cls-4" d="M757.38,498.8a28.8,28.8,0,1,0-28.8-28.8A28.82,28.82,0,0,0,757.38,498.8Zm0-56.1a27.3,27.3,0,1,1-27.3,27.3A27.33,27.33,0,0,1,757.38,442.7Z"/><path class="cls-4" d="M757.38,522.28A52.28,52.28,0,1,0,705.09,470,52.34,52.34,0,0,0,757.38,522.28Zm0-103.06A50.78,50.78,0,1,1,706.59,470,50.83,50.83,0,0,1,757.38,419.22Z"/><path class="cls-4" d="M757.38,500.3a30.3,30.3,0,1,0-30.3-30.3A30.33,30.33,0,0,0,757.38,500.3Zm0-59.1a28.8,28.8,0,1,1-28.8,28.8A28.82,28.82,0,0,1,757.38,441.2Z"/></g></g></svg>