<svg xmlns="http://www.w3.org/2000/svg" viewBox="0 0 793.74 403.28"><defs><style>.cls-1{fill:#f6bd1f;}.cls-2{fill:#fff;}.cls-3,.cls-4{fill:none;}.cls-3{stroke:#243878;stroke-linecap:round;stroke-linejoin:round;stroke-width:10px;}.cls-5{fill:#334681;}</style></defs><title>Ресурс 14</title><g id="Слой_2" data-name="Слой 2"><g id="Слой_2-2" data-name="Слой 2"><path class="cls-1" d="M734.32,202.87a45.66,45.66,0,1,1-45.66,45.66A45.72,45.72,0,0,1,734.32,202.87ZM770,248.53a35.67,35.67,0,1,0-35.67,35.66A35.71,35.71,0,0,0,770,248.53Z" transform="translate(-0.25)"/><path class="cls-1" d="M692.69,332c2.93,11.09-1.51,21.14-10.54,23.89l-.41.1-8.34,1.79a5.25,5.25,0,0,1-.55.09c-1.27.13-30.69,3.13-47.07,3.26a55.34,55.34,0,0,1-107.14,1.39c-3.56,0-6.77,0-9.51,0H292.62l-3.6,0A55.34,55.34,0,0,1,180.36,350.7c-10.47-1.34-29.7-2.3-31.54-2.39h-.05c-1.87,0-10.94-.3-16.55-5.82a14.51,14.51,0,0,1-4.32-10.61,11.69,11.69,0,0,1,11.68-11.68h8.22c4.27-15.94,13.24-30.12,26.44-42a4.86,4.86,0,0,1,.9-.79,121.09,121.09,0,0,1,24.39-16.48c29.82-15.5,70.3-23.72,120.36-24.44l30.58-44.17a4.86,4.86,0,0,1,1.73-1.55c1.09-.59,27.56-14.49,97.81-14.49,71.33,0,101.91,18.15,125,35.16l2.38,1.75A390.5,390.5,0,0,1,615,243.8a5,5,0,0,1,3.1,3,247.93,247.93,0,0,1,28,31.87c0,.07.1.13.15.21a186.57,186.57,0,0,1,23.2,41.78l8.7.74a4.38,4.38,0,0,1,.88.15c2.82.76,11.39,3.08,13.64,10.25A2,2,0,0,1,692.69,332Zm-13.28,14.27c4-1.36,4.86-6.79,3.65-11.57-.21-.52-1.23-2-6.27-3.41l-11.16-1H624.9a55.44,55.44,0,0,1,2.87,17.6c0,1.05,0,2.1-.09,3.16,15.44-.34,41-2.86,43.89-3.15Zm-59-25.93h38a177.8,177.8,0,0,0-19-33.78H610.09a20,20,0,0,1-20-20v-3.1a20,20,0,0,1,11.67-18.14c-12-10.59-22.93-18.66-30.34-24.1l-2.4-1.76c-21.79-16.07-50.76-33.21-119-33.21-51.83,0-82.15,8.08-92,12.78l-31.32,45.25a5,5,0,0,1-4.07,2.15c-29.33.27-55.24,3.12-77.5,8.51a20,20,0,0,1,1.91,8.52v3.1a20,20,0,0,1-20,20h-47.2A75.41,75.41,0,0,0,158.2,320.2h29.09A56.16,56.16,0,0,1,196.81,308a55.67,55.67,0,0,1,87.48,12.82H523.37a55.69,55.69,0,0,1,97.06-.45Zm-10.34-43.78h21.74a246.85,246.85,0,0,0-21.17-23h-.57a10,10,0,0,0-10,10v3.1A10,10,0,0,0,610.09,276.55Zm7.29,71.38A45.35,45.35,0,1,0,572,393.28,45.41,45.41,0,0,0,617.38,347.93ZM519,330.78H288.67a55.57,55.57,0,0,1,2.71,17.15c0,1.54-.07,3.08-.19,4.61H509.13l7.35,0c-.13-1.52-.19-3-.19-4.59A55.57,55.57,0,0,1,519,330.78ZM281,347.93a45.35,45.35,0,1,0-45.35,45.35A45.41,45.41,0,0,0,281,347.93Zm-44-81.34v-3.1a10,10,0,0,0-1.92-5.86,171.58,171.58,0,0,0-30.92,12.17,129.07,129.07,0,0,0-11.51,6.75H227A10,10,0,0,0,237,266.59Zm-54.2,63.61h-43.2a1.68,1.68,0,0,0-1.68,1.68,4.51,4.51,0,0,0,1.32,3.47c2.45,2.43,7.77,3,9.56,3h.38c.93,0,19.6.95,31.21,2.32A54.87,54.87,0,0,1,182.78,330.2Z" transform="translate(-0.25)"/><path class="cls-1" d="M683.06,334.69c1.21,4.78.34,10.21-3.65,11.57l-7.84,1.68c-2.91.29-28.45,2.81-43.89,3.15.06-1.06.09-2.11.09-3.16a55.44,55.44,0,0,0-2.87-17.6h40.73l11.16,1C681.83,332.7,682.85,334.17,683.06,334.69Z" transform="translate(-0.25)"/><path class="cls-1" d="M658.46,320.33h-38a55.69,55.69,0,0,0-97.06.45H284.29a55.75,55.75,0,0,0-97-.58H158.2a75.41,75.41,0,0,1,21.61-33.65H227a20,20,0,0,0,20-20v-3.1a20,20,0,0,0-1.91-8.52c22.26-5.39,48.17-8.24,77.5-8.51a5,5,0,0,0,4.07-2.15L358,199.06c9.9-4.7,40.22-12.78,92-12.78,68.29,0,97.26,17.14,119.05,33.21l2.4,1.76c7.41,5.44,18.38,13.51,30.34,24.1a20,20,0,0,0-11.67,18.14v3.1a20,20,0,0,0,20,20h29.32A177.8,177.8,0,0,1,658.46,320.33Zm-98.22-79.06a26.19,26.19,0,0,0-4.8-14.35c-9.16-12.42-27-21.49-54.68-27.74-9.88-2.22-23.42-2.69-27.34-2.78-4.77-.1-7.58,1.85-9.08,3.52a12,12,0,0,0-2.75,8.85v37.68a11.72,11.72,0,0,0,3.35,8.66,12.3,12.3,0,0,0,8.28,3.35c3.13.1,49,1.61,65.81,1.61,2.26,0,4,0,5-.09h0C553.89,259.37,560.24,252,560.24,241.27Zm-11.77,35.14a5,5,0,0,0-5-5H509.3a5,5,0,0,0,0,10h34.17A5,5,0,0,0,548.47,276.41ZM451,246.87c.06-3,.6-30.83,0-38.07-.34-4.07-1.76-7.16-4.22-9.18a9.47,9.47,0,0,0-6.22-2.15c-9.21-.33-37.7,1-38.92,1.06h-.13c-9.4.69-23.26,2.46-35.13,9.83-8.28,5.1-17.3,22.28-21.06,32.84-2.11,5.88-.82,9.75.63,12,3,4.6,8.5,5.11,9.11,5.16h14.45c5.34,0,20.79.11,36.13.11,17.05,0,34-.1,36.62-.48C449.14,257,451.25,250.91,451,246.87Zm-3,29.54a5,5,0,0,0-5-5H408.84a5,5,0,0,0,0,10H443A5,5,0,0,0,448,276.41Z" transform="translate(-0.25)"/><path class="cls-1" d="M631.83,276.55H610.09a10,10,0,0,1-10-10v-3.1a10,10,0,0,1,10-10h.57A246.85,246.85,0,0,1,631.83,276.55Z" transform="translate(-0.25)"/><path class="cls-1" d="M572,302.58a45.35,45.35,0,1,1-45.35,45.35A45.41,45.41,0,0,1,572,302.58Zm29.22,45.35A29.22,29.22,0,1,0,572,377.14,29.25,29.25,0,0,0,601.25,347.93Z" transform="translate(-0.25)"/><path class="cls-1" d="M572,318.71a29.22,29.22,0,1,1-29.22,29.22A29.25,29.25,0,0,1,572,318.71Zm19.21,29.22A19.22,19.22,0,1,0,572,367.14,19.24,19.24,0,0,0,591.25,347.93Z" transform="translate(-0.25)"/><path class="cls-1" d="M555.24,16.14A45.67,45.67,0,1,1,509.58,61.8,45.72,45.72,0,0,1,555.24,16.14ZM590.91,61.8a35.67,35.67,0,1,0-35.67,35.67A35.71,35.71,0,0,0,590.91,61.8Z" transform="translate(-0.25)"/><path class="cls-1" d="M572,328.71a19.22,19.22,0,1,1-19.22,19.22A19.24,19.24,0,0,1,572,328.71Z" transform="translate(-0.25)"/><path class="cls-2" d="M555.44,226.92a26.19,26.19,0,0,1,4.8,14.35c0,10.76-6.35,18.1-16.18,18.71h0c-1,.07-2.76.09-5,.09-16.79,0-62.68-1.51-65.81-1.61a12.3,12.3,0,0,1-8.28-3.35,11.72,11.72,0,0,1-3.35-8.66V208.77a12,12,0,0,1,2.75-8.85c1.5-1.67,4.31-3.62,9.08-3.52,3.92.09,17.46.56,27.34,2.78C528.39,205.43,546.28,214.5,555.44,226.92Zm-12,23.08c5.63-.35,6.8-4.94,6.8-8.73a16.51,16.51,0,0,0-2.86-8.43c-7.56-10.25-24-18.29-48.82-23.9-7.13-1.6-17.78-2.36-25.37-2.54a1.16,1.16,0,0,0-1.64,1.46c0,.22,0,.43,0,.65v37.94A2.57,2.57,0,0,0,472,248a2.69,2.69,0,0,0,1.28.48h.24C494.76,249.17,536.78,250.4,543.44,250Z" transform="translate(-0.25)"/><path class="cls-2" d="M550.24,241.27c0,3.79-1.17,8.38-6.8,8.73-6.66.4-48.68-.83-70-1.54h-.24A2.69,2.69,0,0,1,472,248a2.57,2.57,0,0,1-.36-1.53V208.51c0-.22,0-.43,0-.65a1.16,1.16,0,0,1,1.64-1.46c7.59.18,18.24.94,25.37,2.54,24.84,5.61,41.26,13.65,48.82,23.9A16.51,16.51,0,0,1,550.24,241.27Z" transform="translate(-0.25)"/><path class="cls-1" d="M543.47,271.41a5,5,0,0,1,0,10H509.3a5,5,0,0,1,0-10Z" transform="translate(-0.25)"/><path class="cls-1" d="M288.67,330.78H519a55.57,55.57,0,0,0-2.71,17.15c0,1.54.06,3.07.19,4.59l-7.35,0H291.19c.12-1.53.19-3.07.19-4.61A55.57,55.57,0,0,0,288.67,330.78Z" transform="translate(-0.25)"/><path class="cls-2" d="M451,208.8c.62,7.24.08,35.07,0,38.07.23,4-1.88,10.11-8.76,11.11-2.66.38-19.57.48-36.62.48-15.34,0-30.79-.08-36.13-.11H355.06c-.61,0-6.11-.56-9.11-5.16-1.45-2.22-2.74-6.09-.63-12,3.76-10.56,12.78-27.74,21.06-32.84,11.87-7.37,25.73-9.14,35.13-9.83h.13c1.22-.06,29.71-1.39,38.92-1.06a9.47,9.47,0,0,1,6.22,2.15C449.24,201.64,450.66,204.73,451,208.8Zm-10,38.09c.21-10.45.49-31.67,0-37.24a5.19,5.19,0,0,0-.53-2.18h-.1c-8.29-.34-36.67,1-38.24,1.05-8.34.61-20.54,2.16-30.53,8.35-4.64,2.86-12.85,16.32-16.91,27.7-.71,2-.54,2.94-.41,3.14a2.54,2.54,0,0,0,1.4.64h13.82c25.61.15,67.57.21,71.29-.27l.1,0a3.26,3.26,0,0,0,.11-.64A4.78,4.78,0,0,1,441,246.89Z" transform="translate(-0.25)"/><path class="cls-1" d="M443,271.41a5,5,0,0,1,0,10H408.84a5,5,0,0,1,0-10Z" transform="translate(-0.25)"/><path class="cls-2" d="M441,209.65c.47,5.57.19,26.79,0,37.24a4.78,4.78,0,0,0,0,.53,3.26,3.26,0,0,1-.11.64l-.1,0c-3.72.48-45.68.42-71.29.27H355.72a2.54,2.54,0,0,1-1.4-.64c-.13-.2-.3-1.15.41-3.14,4.06-11.38,12.27-24.84,16.91-27.7,10-6.19,22.19-7.74,30.53-8.35,1.57-.07,29.95-1.39,38.24-1.05h.1A5.19,5.19,0,0,1,441,209.65Z" transform="translate(-0.25)"/><path class="cls-1" d="M235.64,302.58a45.35,45.35,0,1,1-45.35,45.35A45.41,45.41,0,0,1,235.64,302.58Zm29.21,45.35a29.22,29.22,0,1,0-29.21,29.21A29.25,29.25,0,0,0,264.85,347.93Z" transform="translate(-0.25)"/><path class="cls-1" d="M235.64,318.71a29.22,29.22,0,1,1-29.22,29.22A29.25,29.25,0,0,1,235.64,318.71Zm19.21,29.22a19.22,19.22,0,1,0-19.21,19.21A19.24,19.24,0,0,0,254.85,347.93Z" transform="translate(-0.25)"/><path class="cls-1" d="M235.64,328.71a19.22,19.22,0,1,1-19.22,19.22A19.24,19.24,0,0,1,235.64,328.71Z" transform="translate(-0.25)"/><path class="cls-1" d="M237,263.49v3.1a10,10,0,0,1-10,10H192.63a129.07,129.07,0,0,1,11.51-6.75,171.58,171.58,0,0,1,30.92-12.17A10,10,0,0,1,237,263.49Z" transform="translate(-0.25)"/><path class="cls-1" d="M185.29,115.07a45.67,45.67,0,1,1-45.67,45.66A45.71,45.71,0,0,1,185.29,115.07ZM221,160.73a35.67,35.67,0,1,0-35.66,35.67A35.7,35.7,0,0,0,221,160.73Z" transform="translate(-0.25)"/><path class="cls-1" d="M151.74,330.2h31a54.87,54.87,0,0,0-2.41,10.43c-11.61-1.37-30.28-2.28-31.21-2.32h-.38c-1.79,0-7.11-.53-9.56-3a4.51,4.51,0,0,1-1.32-3.47,1.68,1.68,0,0,1,1.68-1.68Z" transform="translate(-0.25)"/><path class="cls-1" d="M45.91,249.36A45.66,45.66,0,1,1,.25,295,45.72,45.72,0,0,1,45.91,249.36ZM81.58,295a35.67,35.67,0,1,0-35.67,35.66A35.7,35.7,0,0,0,81.58,295Z" transform="translate(-0.25)"/><circle class="cls-3" cx="568.99" cy="45.66" r="40.66"/><polyline class="cls-3" points="730.7 228.87 745.49 247.88 765.78 217.13"/><polyline class="cls-3" points="551.45 42.03 566.24 61.04 586.53 30.29"/><polyline class="cls-3" points="181.5 142.75 196.29 161.76 216.58 131.01"/><circle class="cls-3" cx="748.07" cy="232.39" r="40.66"/><rect class="cls-4" x="494.07" y="52.65" width="92.64" height="149.98" transform="translate(222.13 582.81) rotate(-68.35)"/><rect class="cls-5" x="518.36" y="148.03" width="17.19" height="15" transform="translate(187.73 587.93) rotate(-68.35)"/><rect class="cls-5" x="529.73" y="119.37" width="17.19" height="15" transform="translate(221.55 580.42) rotate(-68.35)"/><rect class="cls-5" x="541.08" y="90.8" width="17.19" height="15" transform="translate(255.26 572.93) rotate(-68.35)"/><circle class="cls-3" cx="59.66" cy="278.88" r="40.66"/><polyline class="cls-3" points="42.12 275.25 56.91 294.25 77.2 263.5"/><rect class="cls-4" x="61.43" y="254.31" width="149.98" height="71.38" transform="translate(-157.1 419.25) rotate(-88.59)"/><rect class="cls-5" x="152.66" y="286.16" width="15" height="13.25" transform="translate(-136.73 445.68) rotate(-88.59)"/><rect class="cls-5" x="128.9" y="285.57" width="15" height="13.25" transform="translate(-159.32 421.37) rotate(-88.59)"/><rect class="cls-5" x="105.22" y="284.99" width="15" height="13.25" transform="translate(-181.83 397.12) rotate(-88.59)"/><rect class="cls-4" x="666.86" y="199.72" width="55.88" height="149.99" transform="matrix(0.86, -0.52, 0.52, 0.86, -42.24, 398.61)"/><rect class="cls-5" x="672.54" y="274.96" width="10.37" height="15" transform="translate(-48.7 390.91) rotate(-31.12)"/><rect class="cls-5" x="688.47" y="265.34" width="10.37" height="15" transform="matrix(0.86, -0.52, 0.52, 0.86, -41.44, 397.76)"/><rect class="cls-5" x="704.34" y="255.76" width="10.37" height="15" transform="matrix(0.86, -0.52, 0.52, 0.86, -34.2, 404.59)"/><path class="cls-3" d="M249.64,307.57a24.22,24.22,0,1,1-24.22,24.22,24.21,24.21,0,0,1,24.22-24.22m0-26.13A50.35,50.35,0,1,0,300,331.79a50.41,50.41,0,0,0-50.35-50.36Z" transform="translate(-0.25)"/><path class="cls-3" d="M586,281.44a50.35,50.35,0,1,0,50.35,50.36A50.41,50.41,0,0,0,586,281.44Z" transform="translate(-0.25)"/><path class="cls-3" d="M691.68,310.2l-11.84-1c-21.58-58.45-74-95.27-93.81-109.87-22.21-16.38-52.22-34.19-122-34.19S368.58,179,368.58,179l-32.05,46.29c-104.67,1-160.25,34.88-170.79,83.74H153.58a6.68,6.68,0,0,0-6.68,6.68c0,11.7,16,11.43,16,11.43s26.49,1.26,36,3a50.74,50.74,0,1,1,100.56,11.13q3.57.07,7.14.07H523.13c3.62,0,8.06,0,13.06-.07a50.74,50.74,0,1,1,100.58-9.55,51.56,51.56,0,0,1-.66,8.2h2.39c16,0,47.85-3.24,47.85-3.24l8.35-1.79c6.7-2,9.28-9.79,7.16-17.83C700.63,313.21,695.81,311.31,691.68,310.2Z" transform="translate(-0.25)"/><path class="cls-3" d="M455.54,236.89c-4.94.71-72,.32-72,.32H369.41s-8.91-.63-5.39-10.45c3.86-10.83,12.45-26.25,19-30.27,10.49-6.5,23.14-8.38,32.87-9.1,0,0,29.94-1.41,38.74-1.05,0,0,4.79-.54,5.41,6.75s0,37.76,0,37.76S460.49,236.17,455.54,236.89Z" transform="translate(-0.25)"/><path class="cls-3" d="M557.75,238.85c-8.64.52-70.44-1.54-70.44-1.54s-6.72.11-6.72-7V192.37s-1-7.29,6.72-7.11,18.73.95,26.36,2.66c16.06,3.63,40.72,10.87,51.75,25.82a21.44,21.44,0,0,1,3.83,11.38C569.25,231.36,566.36,238.32,557.75,238.85Z" transform="translate(-0.25)"/><path class="cls-3" d="M586,307.57a24.22,24.22,0,1,1-24.22,24.22A24.21,24.21,0,0,1,586,307.57" transform="translate(-0.25)"/><line class="cls-3" x1="165.49" y1="309.06" x2="204.47" y2="309.06"/><line class="cls-3" x1="295.49" y1="309.64" x2="540.14" y2="309.64"/><line class="cls-3" x1="631.45" y1="309.19" x2="681.49" y2="309.19"/><path class="cls-3" d="M250.62,235.88A14.93,14.93,0,0,1,256,247.35v3.1a15,15,0,0,1-15,15H191.93" transform="translate(-0.25)"/><path class="cls-3" d="M627.4,232.39h-3.32a15,15,0,0,0-15,15v3.1a15,15,0,0,0,15,15H656" transform="translate(-0.25)"/><line class="cls-3" x1="422.59" y1="260.27" x2="456.77" y2="260.27"/><line class="cls-3" x1="523.05" y1="260.27" x2="557.22" y2="260.27"/><circle class="cls-3" cx="199.04" cy="144.59" r="40.66"/><rect class="cls-4" x="171.66" y="168.71" width="149.99" height="71" transform="translate(-73.82 204.93) rotate(-39.75)"/><rect class="cls-5" x="252.6" y="217.22" width="15" height="13.18" transform="translate(-83.24 218.07) rotate(-39.75)"/><rect class="cls-5" x="237.48" y="199.05" width="15" height="13.18" transform="translate(-75.11 204.19) rotate(-39.75)"/><rect class="cls-5" x="222.42" y="180.94" width="15" height="13.18" transform="translate(-67.01 190.37) rotate(-39.75)"/></g></g></svg>