<svg xmlns="http://www.w3.org/2000/svg" xmlns:xlink="http://www.w3.org/1999/xlink" width="26" height="26" viewBox="0 0 26 26">
    <defs>
        <path id="a" d="M0 .006h21.994V22H0z"/>
        <path id="c" d="M.002.022H22.98V23H.002z"/>
    </defs>
    <g fill="none" fill-rule="evenodd">
        <g transform="translate(0 4)">
            <mask id="b" fill="#fff">
                <use xlink:href="#a"/>
            </mask>
            <path fill="#F9C000" d="M21.994 11.003C21.994 4.93 17.071.006 10.997.006 4.924.006 0 4.93 0 11.003 0 17.076 4.924 22 10.997 22c6.074 0 10.997-4.924 10.997-10.997" mask="url(#b)"/>
        </g>
        <path fill="#FFF" d="M23.907 1l-1.64 1.86-1.71 1.99-6.78 7.883-3.705-4.212L8 10.405 13.8 17l8.456-9.832L24.06 5.07 26 2.86z"/>
        <g transform="translate(3)">
            <mask id="d" fill="#fff">
                <use xlink:href="#c"/>
            </mask>
            <path fill="#FFF" d="M20.172 9.55c.142.637.216 1.293.216 1.961 0 2.377-.926 4.61-2.606 6.291a8.838 8.838 0 0 1-6.291 2.606A8.838 8.838 0 0 1 5.2 17.802a8.838 8.838 0 0 1-2.606-6.29c0-2.377.926-4.611 2.606-6.292a8.838 8.838 0 0 1 6.29-2.605c1.454 0 2.853.346 4.105.999l1.752-1.992a11.418 11.418 0 0 0-5.856-1.6 11.414 11.414 0 0 0-8.124 3.365 11.414 11.414 0 0 0-3.365 8.124c0 3.069 1.195 5.954 3.365 8.124A11.414 11.414 0 0 0 11.491 23c3.069 0 5.954-1.195 8.124-3.365a11.414 11.414 0 0 0 3.365-8.124c0-1.408-.253-2.776-.734-4.056l-2.074 2.096z" mask="url(#d)"/>
        </g>
    </g>
</svg>
