<svg xmlns="http://www.w3.org/2000/svg" xmlns:xlink="http://www.w3.org/1999/xlink" width="15" height="15" viewBox="0 0 15 15">
    <defs>
        <path id="a" d="M0 0h15v15H0z"/>
    </defs>
    <g fill="none" fill-rule="evenodd">
        <mask id="b" fill="#fff">
            <use xlink:href="#a"/>
        </mask>
        <path fill="#0C308C" d="M14.97 2.322l.011-.01-.024-.025-.709-.71-1.09-1.092a1.65 1.65 0 0 0-2.337 0L9.548 1.76a1.657 1.657 0 0 0 0 2.34l1.29 1.293c-.348.658-1.046 1.732-2.396 3.085-1.24 1.243-2.29 1.976-2.995 2.39L4.075 9.495a1.588 1.588 0 0 0-2.248 0L.466 10.858c-.621.622-.621 1.63 0 2.253L1.6 14.247l.709.71.024.024.01-.01c.483.26 4.568-1.218 7.99-4.646 3.422-3.428 4.898-7.52 4.638-8.003" mask="url(#b)"/>
    </g>
</svg>
