<svg xmlns="http://www.w3.org/2000/svg" xmlns:xlink="http://www.w3.org/1999/xlink" width="113" height="73" viewBox="0 0 113 73">
    <defs>
        <path id="a" d="M0 73h113V.645H0z"/>
    </defs>
    <g fill="none" fill-rule="evenodd">
        <path fill="#F7BF00" d="M0 72.355h106.61V6.465H0z"/>
        <path fill="#263883" d="M74.926 33.659l-8.143-20.501 8.433-.002v4.387h-2.54l4.404 10.57 4.398-10.675h-2.614v-4.283l8.504-.003-8.114 20.506z"/>
        <g transform="translate(0 -.645)">
            <path fill="#263883" d="M36.076 34.242c-1.423 0-2.808-.255-4.114-.758a10.248 10.248 0 0 1-3.36-2.159 9.733 9.733 0 0 1-2.19-3.305 10.424 10.424 0 0 1-.785-4.03c0-1.42.263-2.777.785-4.03a9.75 9.75 0 0 1 2.19-3.305 10.018 10.018 0 0 1 3.36-2.145 11.154 11.154 0 0 1 4.114-.77c1.445 0 2.786.251 4.1.77a9.746 9.746 0 0 1 3.362 2.145 9.572 9.572 0 0 1 2.202 3.305c.522 1.255.786 2.61.786 4.03 0 1.42-.264 2.775-.787 4.031a9.549 9.549 0 0 1-2.202 3.304 9.972 9.972 0 0 1-3.36 2.16 11.189 11.189 0 0 1-4.1.757zm-5.19-7.195a5.61 5.61 0 0 0 2.77 2.671 6.211 6.211 0 0 0 2.406.486h.024a6.23 6.23 0 0 0 2.415-.487.901.901 0 0 0 .128-.079l.088-.059a5.447 5.447 0 0 0 1.538-1.14c.375-.392.695-.854.956-1.37l.073-.148a6.2 6.2 0 0 0 .204-.483c.028-.074.052-.149.076-.225l.032-.099 2.06-5.15H42.34l-1.089.03-.028-.059c-.085-.172-.186-.33-.287-.489a3.43 3.43 0 0 0-.49-.752 5.403 5.403 0 0 0-1.947-1.417 6.023 6.023 0 0 0-2.423-.502 6.02 6.02 0 0 0-2.423.502 5.405 5.405 0 0 0-1.946 1.417 5.735 5.735 0 0 0-1.168 2.12l-2.082 5.203h1.316l1.083-.028.03.058zM60.24 34.303v-4.388h2.54l-4.4-11.056-4.405 11.16h2.618v4.284h-8.506l8.12-20.503h4.327l8.137 20.503zM29.678 45.917H27.14l-.484 1.17H25.36l2.436-5.466h1.249l2.445 5.467h-1.328l-.484-1.171zm-.398-.961l-.867-2.093-.867 2.093h1.734zM36.769 44.722c.177.224.266.5.266.828 0 .484-.184.86-.551 1.133-.367.27-.892.405-1.573.405h-2.695V41.62h2.546c.635 0 1.13.122 1.484.368.354.245.53.593.53 1.046 0 .27-.067.509-.202.715a1.413 1.413 0 0 1-.571.488c.333.099.589.26.766.484zm-3.295-.836h1.179c.276 0 .483-.056.624-.167.14-.112.212-.278.212-.496 0-.214-.073-.378-.215-.492-.144-.115-.351-.172-.621-.172h-1.18v1.327zm2.279 1.563c0-.454-.296-.68-.89-.68h-1.39v1.382h1.39c.594 0 .89-.234.89-.702zM42.134 42.652h-1.75v4.436h-1.25v-4.436h-1.74v-1.03h4.74zM43.927 46.814a2.721 2.721 0 0 1-1.07-1.01 2.76 2.76 0 0 1-.387-1.45 2.724 2.724 0 0 1 1.457-2.46 3.196 3.196 0 0 1 1.534-.366c.568 0 1.077.122 1.53.366a2.73 2.73 0 0 1 1.461 2.46 2.734 2.734 0 0 1-1.461 2.46 3.16 3.16 0 0 1-1.53.367 3.185 3.185 0 0 1-1.534-.367m2.409-.933c.26-.148.464-.355.613-.62.148-.266.223-.568.223-.907 0-.338-.075-.64-.223-.905a1.598 1.598 0 0 0-.613-.62 1.731 1.731 0 0 0-.875-.224c-.322 0-.614.074-.875.223a1.585 1.585 0 0 0-.613.621 1.822 1.822 0 0 0-.222.905c0 .34.074.641.222.906.148.266.352.473.613.621.26.148.553.223.875.223.323 0 .614-.075.875-.223M54.402 47.088l-.007-3.272-1.609 2.695h-.562l-1.609-2.633v3.21h-1.187V41.62h1.046l2.046 3.398 2.015-3.398h1.047l.007 5.467zM58.023 46.814a2.712 2.712 0 0 1-1.07-1.01 2.76 2.76 0 0 1-.387-1.45c0-.536.13-1.019.387-1.448.258-.43.613-.767 1.07-1.012a3.199 3.199 0 0 1 1.533-.366c.569 0 1.079.122 1.532.366.453.245.81.582 1.07 1.012.26.43.39.912.39 1.448 0 .536-.13 1.02-.39 1.45a2.765 2.765 0 0 1-1.07 1.01 3.165 3.165 0 0 1-1.532.367 3.188 3.188 0 0 1-1.533-.367m2.41-.933c.26-.148.464-.355.611-.62.15-.266.224-.568.224-.907 0-.338-.075-.64-.224-.905a1.589 1.589 0 0 0-.611-.62 1.735 1.735 0 0 0-.877-.224c-.322 0-.613.074-.873.223a1.585 1.585 0 0 0-.614.621 1.812 1.812 0 0 0-.223.905c0 .34.075.641.224.906.148.266.352.473.612.621.26.148.552.223.874.223.324 0 .616-.075.877-.223M63.525 41.621h4.412v1.008h-3.155v1.124h1.514c.662 0 1.166.139 1.512.414.346.276.52.675.52 1.195 0 .546-.194.971-.578 1.273-.386.302-.93.453-1.633.453h-2.592v-5.467zm2.521 4.529c.324 0 .571-.063.743-.191.172-.127.257-.314.257-.558 0-.478-.333-.718-1-.718h-1.264v1.467h1.264zM69.288 41.621h1.257v3.562l2.61-3.562h1.186v5.467h-1.25v-3.554l-2.608 3.554h-1.195zM80.534 41.621v5.467h-1.25v-4.436H77.41l-.039 1.141c-.027.775-.089 1.404-.188 1.886-.098.481-.264.851-.496 1.108-.232.258-.556.387-.972.387-.172 0-.38-.029-.625-.086l.078-1.07a.765.765 0 0 0 .227.031c.302 0 .512-.178.632-.534.12-.357.195-.915.227-1.676l.078-2.218h4.202zM81.9 41.621h1.257v3.562l2.608-3.562h1.188v5.467h-1.25v-3.554l-2.609 3.554H81.9zM30.396 56.19a2.712 2.712 0 0 1-1.062-1.008 2.77 2.77 0 0 1-.386-1.456c0-.542.128-1.027.386-1.457.258-.43.613-.766 1.063-1.008.45-.24.957-.362 1.519-.362.473 0 .902.083 1.284.25.383.166.704.405.965.718l-.813.75c-.37-.427-.827-.64-1.374-.64-.338 0-.642.073-.905.222a1.572 1.572 0 0 0-.622.621 1.819 1.819 0 0 0-.223.906c0 .338.074.64.223.905.148.266.355.473.622.622.264.148.567.222.904.222.548 0 1.006-.217 1.375-.648l.814.75a2.55 2.55 0 0 1-.97.726 3.231 3.231 0 0 1-1.288.25 3.15 3.15 0 0 1-1.512-.363M42.185 50.992v5.467h-1.257v-4.436H38.46v4.436h-1.257v-5.467zM47.17 51.234c.357.162.632.391.825.687.193.297.289.65.289 1.055 0 .401-.096.751-.29 1.05-.192.3-.467.53-.823.687-.356.16-.777.24-1.262.24h-1.1v1.506h-1.265v-5.467h2.365c.485 0 .906.081 1.262.242m-.465 2.441c.198-.164.297-.397.297-.699 0-.307-.1-.543-.297-.707-.197-.164-.486-.246-.867-.246h-1.03v1.898h1.03c.38 0 .67-.083.867-.246M50.272 56.185a2.714 2.714 0 0 1-1.456-2.459c0-.536.127-1.02.386-1.449.258-.43.614-.767 1.07-1.012a3.196 3.196 0 0 1 1.534-.366c.568 0 1.077.122 1.53.366a2.734 2.734 0 0 1 1.461 2.461 2.73 2.73 0 0 1-1.461 2.46 3.16 3.16 0 0 1-1.53.366 3.185 3.185 0 0 1-1.534-.367m2.409-.933c.26-.148.464-.355.613-.62.148-.266.223-.568.223-.906 0-.339-.076-.64-.224-.906a1.598 1.598 0 0 0-.612-.62 1.731 1.731 0 0 0-.875-.224c-.322 0-.614.074-.875.223-.26.148-.465.355-.612.621a1.816 1.816 0 0 0-.224.906c0 .338.075.64.224.905.146.266.351.473.611.621.261.15.553.223.876.223.323 0 .614-.074.875-.223M55.773 50.992h4.412V52h-3.154v1.124h1.514c.663 0 1.166.14 1.511.414.347.276.52.675.52 1.195 0 .547-.194.971-.578 1.273-.386.302-.93.453-1.631.453h-2.593v-5.467zm2.522 4.53c.323 0 .57-.064.742-.19.172-.129.258-.315.258-.56 0-.478-.334-.718-1-.718h-1.264v1.468h1.264zM65.77 55.444v1.015h-4.232v-5.467h4.13v1.015h-2.874v1.187h2.539v.984h-2.54v1.266zM70.642 52.023H68.04l.009 4.436h-1.258v-5.467h3.858zM71.942 56.185a2.714 2.714 0 0 1-1.456-2.459c0-.536.13-1.02.386-1.449.258-.43.614-.767 1.07-1.012a3.199 3.199 0 0 1 1.534-.366c.568 0 1.078.122 1.531.366a2.734 2.734 0 0 1 1.46 2.461 2.73 2.73 0 0 1-1.46 2.46 3.165 3.165 0 0 1-1.53.366 3.188 3.188 0 0 1-1.535-.367m2.41-.933c.26-.148.464-.355.612-.62.15-.266.223-.568.223-.906 0-.339-.074-.64-.223-.906a1.585 1.585 0 0 0-.613-.62 1.729 1.729 0 0 0-.875-.224c-.322 0-.614.074-.875.223-.26.148-.464.355-.612.621a1.816 1.816 0 0 0-.223.906c0 .338.074.64.223.905.148.266.352.473.612.621.261.15.553.223.875.223.323 0 .615-.074.875-.223M82.419 56.459l-.008-3.271-1.608 2.694h-.563l-1.608-2.632v3.209h-1.188v-5.467h1.047l2.045 3.398 2.016-3.398h1.046l.008 5.467z"/>
            <mask id="b" fill="#fff">
                <use xlink:href="#a"/>
            </mask>
            <path fill="#273D82" d="M4.111 68.813H113V.645H4.111v68.168zm2.279-2.278h104.332V2.923H6.39v63.612z" mask="url(#b)"/>
        </g>
    </g>
</svg>
