    <svg id="logo"  viewBox="0 0 100.1 29.3">
        <path fill="red" d="M100.1 14.7c0 8.5-5.7 14.6-14 14.6-7.9 0-13.8-5.6-13.8-14.6 0-9.7 7-14.7 14-14.7 6.8 0 13.8 4.7 13.8 14.7zm-6.8 0c0-4.1-2-8.8-7.1-8.8-4.6 0-7.1 4-7.1 8.8 0 5.4 3 8.8 7.1 8.8 5.1 0 7.1-4.7 7.1-8.8zM69.9 26.6c-1.7 1.1-5.2 2.6-10 2.6-9.4 0-14.1-6.5-14.1-14.4C45.8 5.9 52.1 0 60.4 0c4.1 0 6.7.7 9 1.8L67 7.3c-1.8-.7-3.8-1.2-6.3-1.2-6 0-8 3.6-8 8.5 0 5.3 2.7 8.8 7.5 8.8 1.7 0 3-.4 3.4-.6v-5h-4.8v-5.6h11l.1 14.4zm-32.2 2.2c-.9-3.4-2.5-6-3.8-7.7-1.1-1.4-1.9-1.7-1.9-1.7h-2.3v9.4h-6.6V.8c1.4-.2 2.4-.3 3.8-.5 1.3-.1 2.8-.2 4.5-.2 2.2 0 4.1.2 5.6.7 1.5.5 2.8 1.2 3.8 2 1 .9 1.7 1.9 2.2 3.1.5 1.1.7 2.3.7 3.6 0 1.7-.4 3.3-1.3 4.8-.8 1.3-2.2 2.5-3.6 3.4v.1c3.1 1.4 4.9 6 6.6 11h-7.7zm-.5-19.1c0-1.2-.4-2.1-1.3-2.8-.9-.7-2-1-3.4-1h-1.1c-.5 0-1.4.1-1.7.1v8.1c.4.1 1.3.1 2.1.1 1.6 0 3-.4 4-1.2.9-.7 1.4-1.9 1.4-3.3zM0 22.1V.5h19.3v6H6.6v4.9h10.8v5.7H6.6v3c0 1.9 1.1 2.7 2.6 2.7h10.7v6H6.7c-5 0-6.7-2.3-6.7-6.7z"></path>
    </svg>