<svg xmlns="http://www.w3.org/2000/svg" viewBox="0 0 1000 463.29"><defs><style>.cls-1{fill:#f6bd1f;}.cls-2{fill:#f8bf00;}.cls-3{fill:#1e3283;}</style></defs><title>marshrutka</title><g id="Слой_2" data-name="Слой 2"><g id="Слой_1-2" data-name="Слой 1"><circle class="cls-1" cx="779.91" cy="375.7" r="82.31"/><path class="cls-2" d="M329.76,69c-30.06,7.89-62.1,34.5-91.67,55.2-29.57,20.21-75.9,60.13-75.9,60.13h-20.7S48.34,221.8,29.61,240.52c0,0-2,7.4-8.37,19.72-6.41,12.81-3.95,33-3.95,33a91.84,91.84,0,0,0-12.81,7.39c-2.47,1.48-3,10.84-3,21.19a283.18,283.18,0,0,0,2,30.07s-3.94,0-3.45,12.32a48,48,0,0,0,4.44,20.7l39.92,13.8,45.83,4.43h3.45c10.35,34.5,41.9,60.13,79.85,60.13s70-25.63,80.33-60.62l637.93-1.37a51.49,51.49,0,0,0,51.39-51.49v-274a18.45,18.45,0,0,0-18.6-18.45C824.77,58.17,356.17,62.41,329.76,69Z"/><path class="cls-3" d="M546.53,153.86c7.89,7.88,19.71,8.38,22.67,8.38h.49c1,0,313.4-1,364.65-1.48v-20.7c-51.74.49-364.15,1.48-365.14,1.48-2,0-6.9-.5-8.38-2.47a2.16,2.16,0,0,1-.49-1.48V51.34c11.83,0,301.07-.49,373.52-1V29.66c-89.7.49-377.46,1-378,1h-1.47l-1.48.5a18.38,18.38,0,0,0-13.31,20.2v86.25C540.12,144,542.09,149.42,546.53,153.86Z"/><path class="cls-3" d="M435.25,180h37.46a4.94,4.94,0,0,0,4.93-4.93v-1.48a4.94,4.94,0,0,0-4.93-4.93H435.25a4.94,4.94,0,0,0-4.92,4.93v1.48A5.3,5.3,0,0,0,435.25,180Z"/><path class="cls-3" d="M213.47,283a49.78,49.78,0,1,0,49.78,49.78A49.64,49.64,0,0,0,213.47,283Zm0,77.38a27.6,27.6,0,1,1,27.6-27.6A27.25,27.25,0,0,1,213.47,360.36Z"/><path class="cls-3" d="M954.54.09C849.07.58,396.32,5,367.24,12.41c-25.63,6.41-51.26,25.13-75.9,42.88-6.4,4.93-12.81,9.36-19.22,13.8-25.63,17.74-62.59,48.79-73.43,58.15H180l-2,1c-9.86,3.94-96.11,38.93-115.82,58.65l-2,2-1,2.46a130.39,130.39,0,0,1-7.39,18.24c-4.93,10.35-5.92,23.16-5.42,31.54L39,245.53c-6.4,3.94-8.38,11.83-7.88,30.55,0,9.86,1,19.72,1.48,26.13-2.47,3.94-3.45,9.36-3.45,17.25a63.4,63.4,0,0,0,5.91,25.13l2,3.94,45.34,15.28,43.37,3.94a94,94,0,0,0,173.49,4.44L957,367.75s43,2.46,43-35.95V35.2C1000-3.51,954.54.09,954.54.09Zm-883,218.33c4.93-2.46,15.28-6.9,26.62-7.39,8.37-.49,19.22-1,28.58-1-3.45,5.42-6.41,10.35-7.89,11.83-4.43,4.44-9.36,9.86-14.29,10.84-4.43,1-21.68,2-36,3A48.81,48.81,0,0,1,71.53,218.42ZM86.81,341.14l-34-11.34a57.86,57.86,0,0,1-1.48-11.33c9.37,2,24.15,3.94,43.87,3.94h25.13a73.21,73.21,0,0,0-.49,10.35,79.91,79.91,0,0,0,1,11.34ZM53.3,285.45a280.83,280.83,0,0,1,31.05.49,76.12,76.12,0,0,1,3.45,14.29,194.51,194.51,0,0,1-34-3.94C53.79,293.33,53.3,289.88,53.3,285.45ZM213.47,405.21a72.45,72.45,0,1,1,72.45-72.45C286.41,372.68,253.89,405.21,213.47,405.21Zm0-166.58c-40.9,0-75.4,26.12-88.71,62.1H109.48c-3.45-29.08-12.32-33-15.28-34-6.9-3-25.63-3-41.4-2.46v-2.47c3-1.48,5.42-3,7.4-3.94,9.36-.49,39.92-2,47.8-3.45,13.31-3,22.18-12.82,27.11-17.74,4.43-4.93,12.81-18.73,17.74-27.11l333.66-4.93c.49,33,1.48,67.52,2,95.12-60.62.49-172,0-186.79,0A93.7,93.7,0,0,0,213.47,238.63Zm93.15,110.89a91.76,91.76,0,0,0,1.48-16.76,86.65,86.65,0,0,0-1-11.33H489c.49,10.35.49,19.22,1,25.62ZM487,109c-1,18.23-1,44.35-.49,73.43l-320.84,4.93H146.44c-1.47,0-30.55.49-49.28,1.48h-.49c23.65-13.31,62.1-30.06,87.72-40.41h11.83c5.42,4.43,17.25,7.88,43.37,9.36a7.35,7.35,0,0,0,3.45.49l216.86-.49a9.48,9.48,0,0,0,8.87-6.9c.49-1,3-10.35,6.41-46.82A512.84,512.84,0,0,0,477.64,42c0-4.93-4.44-8.87-9.36-8.87-2.47,0-64.57,1.48-83.79,6.41-20.7,5.42-60.62,31-80.83,45.83-16.26,11.83-46.82,38.94-60.12,50.76-8.38-.49-14.79-1-19.72-1.47,15.77-13.31,42.39-35,61.12-47.81,6.4-4.44,12.81-9.36,19.71-13.8C327.81,56.27,352,39,373.16,33.6,386,30.15,432.79,27.69,490,25.72,489.47,39.52,489,66.62,487,109ZM267.69,140.06c14.78-13.31,35-30.56,46.82-38.94,25.62-18.23,59.63-38.93,74.91-42.88,11.83-3,48.79-4.92,70-5.42,0,10.35-.49,28.1-2.46,50.27-2,19.22-3.45,30.56-4.44,37Zm241-30.07c2-43.86,3-71.46,3-85.75,49.77-1.48,395.57-2.47,442.89-3,0,0,24.85-1.69,24.85,13.92V180L508.2,182.44C507.7,153.86,508.2,127.74,508.69,110Zm0,94.14,470.7-2.43v96.61c-73.35.48-434.42.95-468.73,1.43C509.67,271.65,509.18,237.15,508.69,204.13Zm448.81,141-445.36,2c0-6.4-.49-15.27-1-25.62,34.31-.48,394.92-1,468.24-1.43v11.8C979.39,345.8,957.5,345.08,957.5,345.08Z"/><path class="cls-3" d="M213.47,426.44a93.68,93.68,0,1,1,93.69-93.68A93.79,93.79,0,0,1,213.47,426.44Zm0-164.62a70.94,70.94,0,1,0,70.94,70.94A71,71,0,0,0,213.47,261.82Z"/><path class="cls-3" d="M213.47,383a50.24,50.24,0,1,1,50.24-50.24A50.29,50.29,0,0,1,213.47,383Zm0-77.73A27.5,27.5,0,1,0,241,332.76,27.52,27.52,0,0,0,213.47,305.27Z"/><circle class="cls-1" cx="820.98" cy="332.76" r="82.31"/><path class="cls-3" d="M821,426.44a93.68,93.68,0,1,1,93.68-93.68A93.79,93.79,0,0,1,821,426.44Zm0-164.62a70.94,70.94,0,1,0,70.94,70.94A71,71,0,0,0,821,261.82Z"/><circle class="cls-1" cx="820.98" cy="332.76" r="38.87"/><path class="cls-3" d="M821,383a50.24,50.24,0,1,1,50.24-50.24A50.29,50.29,0,0,1,821,383Zm0-77.73a27.5,27.5,0,1,0,27.5,27.49A27.52,27.52,0,0,0,821,305.27Z"/><path class="cls-3" d="M932.14,160.67h-1.79V140.06h1.79a3.26,3.26,0,0,0,3.25-3.32L933.6,53.57a3.26,3.26,0,0,0-3.25-3.18V29.78a24,24,0,0,1,23.86,23.35L956,136.29a23.87,23.87,0,0,1-23.86,24.38Z"/></g></g></svg>