<svg width="401" height="405" viewBox="0 0 401 405" fill="none" xmlns="http://www.w3.org/2000/svg">
<path fill-rule="evenodd" clip-rule="evenodd" d="M308.52 245.725C307.83 247.928 307.222 250.154 306.418 252.323C304.879 256.601 303.125 260.691 301.231 264.657L301.004 265.244L300.968 265.15C295.946 275.543 289.74 284.897 282.209 293.119C273.546 302.699 263.482 310.336 252.1 316.326C250.609 317.266 249.273 318.463 247.677 319.217C236.238 324.186 224.32 327.324 211.941 328.554C208.052 328.958 204.111 329.163 200.107 329.163H200.105H200.102C200.014 329.163 199.93 329.151 199.844 329.151C195.929 329.144 192.057 328.948 188.237 328.554C175.87 327.322 163.964 324.184 152.547 319.217C137.503 312.123 124.664 302.466 114.268 289.961C107.749 282.24 102.441 273.783 98.1314 264.694L78.4016 265.244H50.125L91.3265 158.232C96.1009 142.011 103.665 127.593 114.268 115.019C124.664 102.534 137.503 92.8798 152.547 86.0536C167.571 79.2497 183.436 75.8367 200.102 75.8367C216.766 75.8367 232.631 79.2497 247.677 86.0536C262.699 92.8798 275.56 102.534 285.955 115.019C290.021 119.914 292.87 124.71 295.113 129.559C297.244 133.063 299.408 136.543 301.216 140.331L321.032 139.781H349.309L308.52 245.725ZM385.909 122.838C376.041 97.7153 362.033 75.9671 343.684 57.6106C325.576 39.2567 304.173 25.1424 279.212 15.2506C254.251 5.09011 228.184 0 200.492 0C172.797 0 146.471 5.09011 121.489 15.2506C96.8298 25.1424 75.4046 39.2567 57.058 57.6106C38.9507 75.9671 24.9609 97.7153 15.0718 122.838C4.9242 147.98 0 174.53 0 202.488C0 230.448 4.9242 256.997 15.0718 282.14C24.9609 307.263 38.9507 329.011 57.058 347.367C75.4046 365.721 96.8298 379.858 121.489 390.018C146.471 399.91 172.797 405 200.492 405C228.184 405 254.251 399.91 279.212 390.018C304.173 379.858 325.576 365.721 343.684 347.367C362.033 329.011 376.041 307.263 385.909 282.14C396.057 256.997 401 230.448 401 202.488C401 174.53 396.057 147.98 385.909 122.838Z" fill="#F9C610"/>
</svg>
