<svg xmlns="http://www.w3.org/2000/svg" viewBox="0 0 243.8 74.57"><defs><style>.cls-1{fill:#f8bf00;}.cls-2{fill:#1e3283;}</style></defs><title>oav_autopark</title><g id="Слой_2" data-name="Слой 2"><g id="Слой_1-2" data-name="Слой 1"><path class="cls-1" d="M235.73,45.57c-.28-.7-2.16-1.53-2.57-2.65s-.49-3.43-.35-8.56a18,18,0,0,0-1.95-9.26c-.42-.56-2.16-.28-8.08-.91a37.78,37.78,0,0,1-11.28-2.78c-1.6-.7-16.08-8.91-25.41-10.79s-25.91-3.14-33.5-3.35a184.09,184.09,0,0,0-22.18,1.49c-3.4-.25-6.45-.41-8.65-.47A135.94,135.94,0,0,0,107.69,9c-5.2-.48-10.21-.78-13.36-.87C88,8,72.13,9.41,67.87,10.75s-12.12,5.6-15.44,7.4-11.71,6.76-12.76,7.17a28.76,28.76,0,0,1-4.43.76,116.87,116.87,0,0,0-14,2.33c-5.59,1.45-12.29,3.84-14.92,6.12S2.91,41,2.91,41L1.22,42.16,1,44.55c-.17,2.39.82,2.62.82,2.62s-1,6.87,0,7.69c2.26,1.76,17.27,1.75,17.27,1.75h0a12.85,12.85,0,0,0,21.14,3.84h.59A14.82,14.82,0,0,0,41.64,62a1.93,1.93,0,0,0,.45,1.13,2.54,2.54,0,0,0,.5.28A13.78,13.78,0,0,0,62.8,65.35a15.36,15.36,0,0,0,28.38-.55l35.73-.52a12.08,12.08,0,0,0,2,.16,13.11,13.11,0,0,0,2.36-.22L148.43,64a13.78,13.78,0,0,0,21.33-.31l9.43-.14a15.35,15.35,0,0,0,29.58-.42h0s20.54-2.71,23.67-4.45,3.62-7,3.62-7A51,51,0,0,0,235.73,45.57Z"/><path class="cls-2" d="M243.31,39.55a4.67,4.67,0,0,0-1.66-1.84,7.55,7.55,0,0,1-.9-.76c-.36-1-.31-4.48-.22-7.81a24.54,24.54,0,0,0-.52-5.62,0,0,0,0,1,0,0,14.35,14.35,0,0,0-1.82-4.87c-.8-1.06-1.91-1.13-4.12-1.26-1.23-.07-2.92-.17-5.35-.43A36.81,36.81,0,0,1,218,14.3c-.22-.09-1-.51-1.85-1-4.8-2.5-16-8.37-24-10A176.64,176.64,0,0,0,158.53,0h-.22C151,0,131.55,1.51,126.1,3.23c-4.84,1.52-13,5.86-18.81,9-1.67.91-4.43,2.49-7.09,4-3.06,1.76-7.26,4.16-7.92,4.44a31.21,31.21,0,0,1-4.78.78A140.1,140.1,0,0,0,70.42,24.3C63.72,26,55.3,29,51.79,32a11.88,11.88,0,0,0-2,2.32,1.28,1.28,0,0,0-.15.25,18.89,18.89,0,0,0-2.34,5.47l-1.38,1a2,2,0,0,0-.86,1.5l-.21,2.85a6,6,0,0,0,.84,4c-.13.94-.22,1.77-.29,2.53-4.4,0-9-.09-12.89-.29,1.84-1.31,2.2-4.87,2.15-7.78A2,2,0,0,0,34,42.46a1.91,1.91,0,0,0-1.44-.55l-8.47.21a3.89,3.89,0,0,1,0-.58L24.26,40l.56-.37c4.66-.06,10.16-.21,11.31-.57,1.37-.44,7.55-6.82,6.88-9.16-.46-1.59-1.88-1.9-4.3-1.79,1.95-.64,4.07-1.25,6.28-1.79a136.93,136.93,0,0,1,15.29-2.41A30.84,30.84,0,0,0,65.69,23c.74-.27,3-1.48,7.89-4.16,2.45-1.33,5-2.71,6.49-3.49,3-1.56,12.13-6.27,16.78-7.66C101.12,6.41,111.45,5,119,5h.1a2,2,0,0,0,0-4H119c-8.07,0-18.7,1.51-23.24,2.86a55,55,0,0,0-6,2.32,2,2,0,0,0,.56-1.41,2,2,0,0,0-2-2c-1.42,0-17.82,1.58-21.92,2.81s-10.65,4.54-15.34,7c-1.37.7-3.6,1.92-5.77,3.1-2.47,1.35-5.85,3.19-6.4,3.41a27.92,27.92,0,0,1-3.81.59,118.08,118.08,0,0,0-13.93,2.2c-5.48,1.36-12.38,3.66-15.28,6a9.9,9.9,0,0,0-1.72,1.9l-.07.09a14.54,14.54,0,0,0-2,4.29l-1,.64A2,2,0,0,0,.2,36.35L0,38.56a5,5,0,0,0,.65,3.28c-.93,6.61.33,7.54.94,8,2.26,1.66,12.32,2,18.78,2a16.88,16.88,0,0,0,26,8.61,17.42,17.42,0,0,0,14,7.15,17.17,17.17,0,0,0,8.89-2.46,17.32,17.32,0,0,0,29-3.92l85.22-.8A17.33,17.33,0,0,0,216,59.65c5.26-.71,20.13-2.85,23.13-4.52,3.94-2.18,4.58-7.94,4.64-8.59a1.48,1.48,0,0,0,0-.21C243.73,40.6,243.43,39.87,243.31,39.55ZM236.53,29c-.06,2.06-.08,3.66-.06,4.93-4,.21-8,.37-8.67.31a1,1,0,0,1-.63-.37,22.58,22.58,0,0,1,4.57-6.2,7.8,7.8,0,0,1,4.65-1.63A21.22,21.22,0,0,1,236.53,29ZM56.1,50.43a12.17,12.17,0,0,1-.55,3.21,46,46,0,0,1-6.27.49c0-1,.14-2.26.29-3.52ZM52.7,37.21a40.16,40.16,0,0,1,7.84-2.09L61.59,35c.75-.08,1.62-.17,2.41-.23a27.5,27.5,0,0,1-3.47,4c-1.05.16-4.88.31-8.79.4A14.1,14.1,0,0,1,52.7,37.21ZM30.16,48.33a45.92,45.92,0,0,1-5.59.41c0-.79.12-1.69.23-2.63L30.58,46A10,10,0,0,1,30.16,48.33Zm4.67-13.08c-1,.14-4.35.27-7.85.35a10.48,10.48,0,0,1,.68-1.33,39.07,39.07,0,0,1,7.22-1.82l1-.1,1.78-.16A22.18,22.18,0,0,1,34.83,35.25Zm-12.74-9.5a119.61,119.61,0,0,1,13.35-2.1,27.33,27.33,0,0,0,4.8-.81c.66-.25,2.62-1.3,6.94-3.66,2.14-1.17,4.36-2.37,5.68-3.06,2.62-1.35,10.6-5.48,14.66-6.69,3.61-1.08,19.33-2.62,20.81-2.64h.06c-3.47,1.59-7.17,3.47-10.15,5-1.56.8-4.11,2.2-6.58,3.54-2.84,1.55-6.73,3.67-7.36,3.92a29.17,29.17,0,0,1-4.41.68A136,136,0,0,0,44,22.44C37.8,24,30,26.59,26.69,29.28a11.19,11.19,0,0,0-1.89,2.08,1.88,1.88,0,0,0-.16.23,17.22,17.22,0,0,0-2.18,4.81l-1.21.8a2,2,0,0,0-.9,1.52l-.2,2.52a5.48,5.48,0,0,0,.77,3.65c-.16,1.13-.26,2.09-.33,3-3,0-6.2-.1-9-.26,1.13-1.11,1.69-3.35,1.63-6.7a2,2,0,0,0-.62-1.41,1.91,1.91,0,0,0-1.43-.55L4,39.1v-.24l.1-1.22.33-.22c5.73-.08,9.07-.25,9.9-.52.39-.12,1.31-.41,3.82-3.46s2.61-4,2.37-4.86c-.33-1.15-1.15-1.6-2.46-1.73C19.35,26.47,20.7,26.1,22.09,25.75ZM7,32.68a33.75,33.75,0,0,1,6.17-1.55l.86-.09L15,31a19,19,0,0,1-2,2.15c-.87.11-3.54.21-6.37.28C6.76,33.14,6.89,32.91,7,32.68ZM4.56,43.08,9.13,43a9.5,9.5,0,0,1-.28,1.6,42.83,42.83,0,0,1-4.45.32C4.44,44.33,4.49,43.72,4.56,43.08Zm32,16.6a13,13,0,0,1-9.8-4.51A151,151,0,0,0,44.08,56c.11.34.25.66.38,1A12.74,12.74,0,0,1,36.53,59.68Zm16.25,1.47a126.16,126.16,0,0,0,14.14.78,13.29,13.29,0,0,1-14.14-.78ZM82.6,67.3A13.36,13.36,0,1,1,96,53.94a13.2,13.2,0,0,1-.73,4.33,1.88,1.88,0,0,0-.23.61A13.37,13.37,0,0,1,82.6,67.3Zm117.05,0A13.36,13.36,0,1,1,213,53.94,13.38,13.38,0,0,1,199.65,67.3Zm37.56-15.66c-1.74,1-12.12,2.7-20.28,3.85,0-.51.08-1,.08-1.55a17.36,17.36,0,1,0-34.72,0,17.07,17.07,0,0,0,.2,2.49l-82.85.78a16.79,16.79,0,0,0,.32-3.27,17.36,17.36,0,1,0-34.24,4c-3.17,0-6.4-.2-9.18-.41a4.91,4.91,0,0,0,.81-.25c1.94-.81,2.89-3.8,2.8-8.91a2,2,0,0,0-.61-1.41,1.93,1.93,0,0,0-1.44-.55l-9.26.24a4.72,4.72,0,0,1,0-.95l.14-1.9.73-.51c5-.07,10.95-.24,12.18-.65,1.41-.47,7.95-7.57,7.29-10-.56-2.05-2.66-2.09-6.4-1.73,2.59-1,5.55-1.89,8.66-2.7a140.2,140.2,0,0,1,16.48-2.73,32.56,32.56,0,0,0,5.82-1c.78-.31,3.18-1.67,8.46-4.7,2.64-1.52,5.38-3.09,7-4C112.44,14,122.27,8.63,127.3,7c4.74-1.49,23.32-3,31-3a171.83,171.83,0,0,1,33.09,3.3c7.39,1.49,18.26,7.17,22.91,9.6,1.18.62,1.77.92,2.1,1.07a41.46,41.46,0,0,0,11.87,2.94c2.52.27,4.33.37,5.53.45.5,0,1,.06,1.37.09.08.18.18.42.28.68A11.23,11.23,0,0,0,229,24.76c-1.48,1.38-6.7,7.38-5.83,10.07a5,5,0,0,0,4.2,3.42c.2,0,.52,0,1,0,2,0,5.94-.2,8.53-.34,0,.15.09.28.13.41a6,6,0,0,0,2.2,2.52l.39.31c.1.9.18,3.17.21,5.09C239.65,47.7,238.84,50.73,237.21,51.64Z"/><path class="cls-2" d="M152.72,6a2,2,0,0,0-1.64-.76c-8.49.3-9.93.42-14,1.17-9.29,1.71-33.84,16-34.88,16.65a2,2,0,0,0-1,1.61,2,2,0,0,0,.8,1.71l1.11.84c1.41,1.06,4.81,1.31,6.71,1.37H110c.15,0,14.74-.61,36.35-1.88,1.45,0,1.79-1.24,2.06-2.21l4.68-16.73A2,2,0,0,0,152.72,6Zm-8,16.8C124.7,24,111,24.57,109.9,24.61c-.68,0-1.4-.08-2.05-.15,7.23-4.08,23.36-12.88,30-14.1a59.48,59.48,0,0,1,10.67-1C147.43,13.13,145.53,19.92,144.72,22.82Z"/><path class="cls-2" d="M181.5,7.27c-7.11-1.69-17.22-2-24.45-1.92h-.2A2,2,0,0,0,154.9,7L152.1,24a2,2,0,0,0,2,2.33h.29c26.34-1.55,40.07-2.42,42-2.64,5.32-.61,6.58-4.17,6.51-6a2,2,0,0,0-.71-1.44C201.87,16,195.31,10.54,181.5,7.27Zm14.4,12.38c-1.22.14-9.12.68-39.44,2.48l2.11-12.79h.09c6.84,0,15.69.34,21.91,1.82,9.84,2.33,15.75,5.84,18,7.36A3.72,3.72,0,0,1,195.9,19.65Z"/><path class="cls-2" d="M104.93,6.81c-9.16,1.4-21.13,9.33-21.64,9.66a2,2,0,0,0-.55,2.78,2,2,0,0,0,1.67.89,2,2,0,0,0,1.1-.34c.12-.08,11.73-7.77,20-9a2,2,0,1,0-.61-3.95Z"/><path class="cls-2" d="M58.74,18.66a1.93,1.93,0,0,0,1-.3c.08-.05,8.18-5,14.75-5.48a2,2,0,0,0,1.86-2.13,2,2,0,0,0-2.14-1.86C66.7,9.42,58.05,14.74,57.68,15a2,2,0,0,0,1.06,3.7Z"/><path class="cls-2" d="M82.6,46.23a7.71,7.71,0,1,0,7.71,7.71A7.71,7.71,0,0,0,82.6,46.23Zm0,11.41a3.71,3.71,0,1,1,3.71-3.7A3.7,3.7,0,0,1,82.6,57.64Z"/><path class="cls-2" d="M199.65,46.23a7.71,7.71,0,1,0,7.7,7.71A7.72,7.72,0,0,0,199.65,46.23Zm0,11.41a3.71,3.71,0,1,1,3.7-3.7A3.71,3.71,0,0,1,199.65,57.64Z"/></g></g></svg>