<svg xmlns="http://www.w3.org/2000/svg" viewBox="0 0 1010.14 480.09"><defs><style>.cls-1{fill:#f8bf00;}.cls-2{fill:#1e3283;}</style></defs><title>taxi</title><g id="Слой_2" data-name="Слой 2"><g id="Слой_1-2" data-name="Слой 1"><path class="cls-1" d="M958.59,367.77c-2.13-6.76-10.44-10-17.57-11.95l-20.46-1.76c-37.29-101-127.86-164.56-162-189.78-38.37-28.27-90.23-59-210.77-59s-164.87,24-164.87,24l-55.35,80c-180.79,1.63-276.82,60.25-295,144.64h-21A11.52,11.52,0,0,0,0,365.39c0,20.19,27.66,19.72,27.66,19.72s45.78,2.2,62.17,5.25a87.66,87.66,0,1,1,173.69,19.23c4.14.1,8.25.13,12.35.13h374c6.24,0,13.92,0,22.57-.13a85.43,85.43,0,0,1-1.58-16.48,87.65,87.65,0,1,1,175.3,0A89.71,89.71,0,0,1,845,407.28h4.14c27.69,0,82.63-5.62,82.63-5.62l14.45-3.09C957.82,395.05,962.26,381.66,958.59,367.77Z"/><path class="cls-1" d="M177.45,306.13a87,87,0,1,0,87,87A87.08,87.08,0,0,0,177.45,306.13Z"/><path class="cls-1" d="M758.53,306.13a87,87,0,1,0,87,87A87.08,87.08,0,0,0,758.53,306.13Z"/><path class="cls-2" d="M213.7,451.41a97.54,97.54,0,1,1,97.54-97.53A97.64,97.64,0,0,1,213.7,451.41Zm0-174.82A77.28,77.28,0,1,0,291,353.88,77.36,77.36,0,0,0,213.7,276.59Zm0,129.44a52.17,52.17,0,1,1,52.17-52.16A52.22,52.22,0,0,1,213.7,406Zm0-84.08a31.91,31.91,0,1,0,31.91,31.92A31.95,31.95,0,0,0,213.7,322Z"/><path class="cls-2" d="M797.68,451.41a97.54,97.54,0,1,1,97.53-97.53A97.65,97.65,0,0,1,797.68,451.41Zm0-174.82A77.28,77.28,0,1,0,875,353.88,77.37,77.37,0,0,0,797.68,276.59Z"/><g id="_Группа_" data-name="&lt;Группа&gt;"><path class="cls-2" d="M688.48,380.69H312.62c-4.77,0-8.79,0-12.64-.13a10.13,10.13,0,0,1-9.72-12,77.93,77.93,0,0,0-76.57-92.64,78.08,78.08,0,0,0-77.92,75.53,10.13,10.13,0,0,1-12,9.65c-15-2.8-57-4.92-60.84-5.11h0c-3.33,0-19.63-.52-29.78-10.51A26.61,26.61,0,0,1,25.21,326a21.76,21.76,0,0,1,21.73-21.73H60.1c11.79-42.69,42.83-78.08,90.25-102.72C202.18,174.62,272.42,160.3,359.2,159l52.64-76a10.34,10.34,0,0,1,3.5-3.14c1.91-1,48.19-25.36,170.52-25.36,55.83,0,101.67,6.4,140.16,19.57,34.45,11.78,57.69,27,77.67,41.75l4.16,3.06c36.67,26.94,121.55,89.3,159.86,186.3l14.23,1.2a9.65,9.65,0,0,1,1.77.31c5.07,1.36,20.5,5.5,24.69,18.73.05.16.09.31.13.47,5.3,20.05-2.81,38.23-19.29,43.24-.27.08-.54.15-.82.21l-14.49,3.11c-.36.07-.72.13-1.09.17-2.27.23-56.05,5.7-84.08,5.7h-4.15a10.14,10.14,0,0,1-10-11.75,80.23,80.23,0,0,0,1-12.62,78,78,0,1,0-155.92,0,76.28,76.28,0,0,0,1.39,14.61,10.12,10.12,0,0,1-9.83,12.08C703.57,380.65,695.9,380.69,688.48,380.69ZM311.7,360.43H688.48l11.18,0c-.14-2.17-.21-4.34-.21-6.53a98.22,98.22,0,1,1,196.44,0c0,1.33,0,2.67-.09,4,26.74-.71,69.15-4.9,74.44-5.43l13.44-2.88c6-2.11,7.25-10.6,5.37-18.18-.23-.45-1.76-2.71-9.75-5l-19.63-1.66a10.12,10.12,0,0,1-8.65-6.59c-35-94.75-119.21-156.61-155.17-183l-4.18-3.08C754,104.3,703.93,74.68,585.86,74.68c-60.71,0-101.24,6.24-124.55,11.48-19.17,4.31-30.14,8.65-34.35,10.52L372.88,174.8a10.14,10.14,0,0,1-8.24,4.37c-86,.79-154.93,14.37-204.95,40.36-45.45,23.62-73,56.26-81.75,97a10.13,10.13,0,0,1-9.9,8H46.94A1.47,1.47,0,0,0,45.47,326a6.24,6.24,0,0,0,1.85,5c4,3.93,12.91,4.77,15.72,4.72l.61,0c1.58.07,32.56,1.57,52.85,3.88a98.23,98.23,0,0,1,195.42,14.27C311.92,356.05,311.84,358.24,311.7,360.43Z"/></g><path class="cls-2" d="M508.46,200c-26.52,0-53.15-.14-62.36-.19H421.63l-.71,0c-1.14-.08-11.34-1-16.94-9.6-2.69-4.13-5.09-11.3-1.24-22.06a188,188,0,0,1,15.6-32.53C426,123,433.2,114.48,439.9,110.36c20.89-13,45.18-16.06,61.64-17.27l.27,0c2.11-.1,51.54-2.42,67.64-1.85a17.88,17.88,0,0,1,11.71,4.07c4.58,3.76,7.22,9.46,7.86,16.94,1.06,12.57.15,60.57,0,66.15.53,9.17-4.87,19.09-16.46,20.77h0C567.91,199.83,538.25,200,508.46,200Zm62.69-10.88h0ZM422.3,179.55h23.86c42.71.25,111.84.36,122.65-.38a6.09,6.09,0,0,1,0-.74c.29-14.56.88-54.52,0-64.49a11.46,11.46,0,0,0-.44-2.49c-15.16-.47-62.64,1.72-65.5,1.85-14.32,1.06-35.27,3.7-52.33,14.29-7.84,4.83-21.79,27.83-28.74,47.34a10,10,0,0,0-.82,4.16A5,5,0,0,0,422.3,179.55Zm148.37-68.12Z"/><path class="cls-2" d="M740.41,202.8c-29.2,0-108.75-2.62-114.3-2.8a22.85,22.85,0,0,1-15.36-6.23c-2.85-2.81-6.25-7.87-6.25-16.07V112.34c-.23-2.81-.25-10.37,5.15-16.38,2.8-3.12,8-6.79,16.88-6.59,6.82.16,30.45,1,47.74,4.87,48.32,10.91,79.65,26.84,95.76,48.69.87,1.17,8.63,12,8.63,25.78,0,19.5-11.56,32.82-29.45,33.93h0C747.38,202.75,744.35,202.8,740.41,202.8Zm8.17-10.27h0ZM626.29,179.74h.34c29.7,1,109.37,3.4,121.33,2.68,6.93-.43,10.44-5,10.44-13.71,0-7.18-4.65-13.72-4.69-13.78-12.9-17.49-41.13-31.27-83.9-40.93-12.28-2.76-30.65-4.07-43.76-4.38a8,8,0,0,0-1.29.07,5,5,0,0,0-.07.94,5.26,5.26,0,0,1,.07,1.21V177.7a3.92,3.92,0,0,0,.24,1.68,5.23,5.23,0,0,0,1.13.36Zm-1.62-69.22Z"/><path class="cls-2" d="M797.68,406a52.17,52.17,0,1,1,52.17-52.16A52.22,52.22,0,0,1,797.68,406Zm0-84.08a31.91,31.91,0,1,0,31.91,31.92A32,32,0,0,0,797.68,322Z"/><path class="cls-2" d="M135.72,324.54H68.05a10.13,10.13,0,1,1,0-20.26h67.67a10.13,10.13,0,0,1,0,20.26Z"/><path class="cls-2" d="M198.73,248.77H113.52a10.13,10.13,0,1,1,0-20.26h85.21a15.86,15.86,0,0,0,15.84-15.84v-5.38a15.86,15.86,0,0,0-5.67-12.16,10.13,10.13,0,1,1,13-15.53,36.07,36.07,0,0,1,12.92,27.69v5.38A36.14,36.14,0,0,1,198.73,248.77Z"/><path class="cls-2" d="M925.63,272.24H884.38a36.15,36.15,0,0,1-36.1-36.1v-5.38a36.14,36.14,0,0,1,36.1-36.1h5.76a10.13,10.13,0,0,1,0,20.26h-5.76a15.86,15.86,0,0,0-15.84,15.84v5.38A15.86,15.86,0,0,0,884.38,252h41.25a10.13,10.13,0,0,1,0,20.26Z"/><path class="cls-2" d="M485.13,292.66h-27a6.76,6.76,0,0,0-6.76,6.75v27a6.76,6.76,0,0,0,6.76,6.75h27a6.75,6.75,0,0,0,6.75-6.75v-27A6.75,6.75,0,0,0,485.13,292.66Z"/><path class="cls-2" d="M566.16,292.66h-27a6.75,6.75,0,0,0-6.75,6.75v27a6.75,6.75,0,0,0,6.75,6.75h27a6.76,6.76,0,0,0,6.76-6.75v-27A6.76,6.76,0,0,0,566.16,292.66Z"/><path class="cls-2" d="M606.68,238.64h-27a6.76,6.76,0,0,0-6.76,6.75v27a6.76,6.76,0,0,0,6.76,6.76h27a6.76,6.76,0,0,0,6.75-6.76v-27A6.75,6.75,0,0,0,606.68,238.64Z"/><path class="cls-2" d="M525.65,238.64h-27a6.75,6.75,0,0,0-6.75,6.75v27a6.76,6.76,0,0,0,6.75,6.76h27a6.76,6.76,0,0,0,6.75-6.76v-27A6.75,6.75,0,0,0,525.65,238.64Z"/><path class="cls-2" d="M444.61,238.64h-27a6.75,6.75,0,0,0-6.75,6.75v27a6.76,6.76,0,0,0,6.75,6.76h27a6.76,6.76,0,0,0,6.76-6.76v-27A6.76,6.76,0,0,0,444.61,238.64Z"/><path class="cls-2" d="M725.2,94.57a10.14,10.14,0,0,1-9.55-6.74l-24-67.57H511.78L486.42,76.85a10.13,10.13,0,0,1-18.49-8.29L496,6a10.13,10.13,0,0,1,9.25-6H698.76a10.14,10.14,0,0,1,9.55,6.73L734.74,81a10.14,10.14,0,0,1-9.54,13.53Z"/></g></g></svg>