<svg xmlns="http://www.w3.org/2000/svg" viewBox="0 0 188.75 163.45"><defs><style>.cls-1{fill:#f6bd1f;}.cls-2{fill:none;stroke-width:7px;}.cls-2,.cls-3{stroke:#243878;stroke-linecap:round;stroke-linejoin:round;}.cls-3{fill:#243878;stroke-width:2px;}</style></defs><title>Ресурс 5</title><g id="Слой_2" data-name="Слой 2"><g id="Слой_2-2" data-name="Слой 2"><path class="cls-1" d="M22,65.46l8.92-3.59s-7.11-7.63-7.51-8.61.21-3.06,0-4.66c-.93-7.12-3.64-8.87-10.77-8.45C8.49,40.4-.4,42.1,0,47.71c.56,7.66,8.89,7.95,14.25,10.21C16,58.65,22,65.46,22,65.46Z"/><path class="cls-1" d="M98.11,11.75v0h-.24c-1.9-.12-3.82-.2-5.76-.2,0,0-30.71,2.13-39.19,5.65C41.4,22,27.73,60.48,27.73,60.48S8.45,68.41,6.26,71.68c-2.07,3.09-3,8.77-3,15.6h0c0,17.5,5.78,42.54,12.53,50.86,1.38,1.71,5.52,3,11.2,4h0V154c0,5.2,3.94,9.42,8.8,9.42h8.76c4.86,0,8.8-4.22,8.8-9.42v-9.45h0c13.52.63,30,.66,38.76.62v16.08c45.38,0,82.16-33.52,82.16-74.87C174.26,46.89,140.68,14.56,98.11,11.75Zm-6,122.41h0Z"/><path class="cls-2" d="M109.25,3.5V153.25c42,0,76-33.52,76-74.87S151.23,3.5,109.25,3.5Z"/><path class="cls-2" d="M109.25,19.6V137.14c32.95,0,59.65-26.31,59.65-58.77S142.2,19.6,109.25,19.6Z"/><path class="cls-3" d="M119.49,78.88h3.37V60.5h9.65c4.34,0,7.15.66,9.45,2.25,2.71,1.84,4.29,4.44,4.29,8.53a10.85,10.85,0,0,1-3.17,8c-2.45,2.45-5.62,3.68-10.72,3.68h-4.75v3.42h17.16v4H127.61v5.87h-4.75V90.37h-3.37v-4h3.37V83h-3.37ZM138.69,66c-1.58-1-3.37-1.43-6.38-1.43h-4.7v14.3h4c3.88,0,6.08-.72,7.66-2.2a6.93,6.93,0,0,0,2-5.26C141.3,68.93,140.48,67.19,138.69,66Z"/><path class="cls-2" d="M37.84,55.5s-4.68-4.88-6.42-5.61C26,47.62,17.73,47.33,17.16,39.68c-.41-5.6,8.48-7.31,12.61-7.55,7.13-.42,9.84,1.33,10.77,8.45.21,1.6-.41,3.68,0,4.66s5.3,4.6,5.3,4.6"/><path class="cls-2" d="M109.21,3.5s-27.64.88-39.15,5.65-25.19,43.3-25.19,43.3S25.59,60.37,23.4,63.64c-7.37,11,.18,54.9,9.56,66.47,6.62,8.17,76.29,7,76.29,7"/><line class="cls-2" x1="109.21" y1="3.5" x2="109.21" y2="137.12"/><path class="cls-2" d="M109.21,60.5s-44.41.09-51.89-1.33c-.87-.17,4.25-25.58,16.51-36.5,9-4.56,35.38-4.17,35.38-4.17"/><path class="cls-2" d="M109.21,105.53s-36.75-.28-41.5.23-2.05,7.13-.8,11.21,2.55,6.62,6.05,7.64,36.29,1.53,36.29,1.53"/><path class="cls-2" d="M44.14,134.1V146c0,5.2,3.94,9.42,8.8,9.42H61.7c4.86,0,8.8-4.22,8.8-9.42v-9.45"/><path class="cls-2" d="M20.44,79.25h23.9A7.74,7.74,0,0,1,52.07,87v1.52a7.74,7.74,0,0,1-7.74,7.74H33"/></g></g></svg>