<?xml version="1.0" encoding="utf-8"?>
<!-- Generator: Adobe Illustrator 22.0.1, SVG Export Plug-In . SVG Version: 6.00 Build 0)  -->
<svg version="1.1" id="Слой_1" xmlns="http://www.w3.org/2000/svg" xmlns:xlink="http://www.w3.org/1999/xlink" x="0px" y="0px"
	 viewBox="0 0 144 138" style="enable-background:new 0 0 144 138;" xml:space="preserve">
<style type="text/css">
	.st0{fill-rule:evenodd;clip-rule:evenodd;fill:#0C308C;}
</style>
<path class="st0" d="M111.4,84.3c-0.2,0.8-0.5,1.5-0.8,2.3c-0.6,1.5-1.2,2.9-1.9,4.2l-0.1,0.2l0,0c-1.8,3.6-4,6.8-6.7,9.6
	c-3.1,3.3-6.7,5.9-10.8,8c-0.5,0.3-1,0.7-1.6,1c-4.1,1.7-8.4,2.8-12.8,3.2c-1.4,0.1-2.8,0.2-4.2,0.2h0h0c0,0-0.1,0-0.1,0
	c-1.4,0-2.8-0.1-4.2-0.2c-4.4-0.4-8.7-1.5-12.8-3.2c-5.4-2.4-10-5.8-13.7-10c-2.3-2.7-4.2-5.6-5.8-8.7L29.1,91H19l14.7-36.8
	c1.7-5.6,4.4-10.5,8.2-14.8c3.7-4.3,8.3-7.6,13.7-9.9c5.4-2.3,11-3.5,17-3.5c6,0,11.6,1.2,17,3.5c5.4,2.3,10,5.7,13.7,9.9
	c1.5,1.7,2.5,3.3,3.3,5c0.8,1.2,1.5,2.4,2.2,3.7l7.1-0.2H126L111.4,84.3L111.4,84.3z M138.6,41.9c-3.5-8.6-8.6-16-15.2-22.2
	c-6.5-6.3-14.2-11.1-23.2-14.4C91.3,1.7,81.9,0,72,0c-9.9,0-19.4,1.7-28.4,5.2c-8.9,3.4-16.5,8.2-23.1,14.4C14,25.9,9,33.3,5.4,41.9
	C1.8,50.4,0,59.5,0,69c0,9.5,1.8,18.6,5.4,27.1c3.6,8.6,8.6,16,15.1,22.2c6.6,6.3,14.3,11.1,23.1,14.5c9,3.4,18.4,5.1,28.4,5.1
	c9.9,0,19.3-1.7,28.3-5.1c9-3.5,16.6-8.3,23.2-14.5c6.6-6.3,11.6-13.7,15.2-22.2c3.6-8.6,5.4-17.6,5.4-27.1
	C144,59.5,142.2,50.4,138.6,41.9L138.6,41.9z"/>
</svg>
