<svg xmlns="http://www.w3.org/2000/svg" viewBox="0 0 144 138"><path d="M111.4 84.3c-.2.8-.5 1.5-.8 2.3-.6 1.5-1.2 2.9-1.9 4.2l-.1.2a38.9 38.9 0 0 1-17.5 17.6c-.5.3-1 .7-1.6 1a43.75 43.75 0 0 1-17 3.4h-.1c-1.4 0-2.8-.1-4.2-.2-4.4-.4-8.7-1.5-12.8-3.2-5.4-2.4-10-5.8-13.7-10-2.3-2.7-4.2-5.6-5.8-8.7l-6.8.1H19l14.7-36.8c1.7-5.6 4.4-10.5 8.2-14.8 3.7-4.3 8.3-7.6 13.7-9.9 5.4-2.3 11-3.5 17-3.5s11.6 1.2 17 3.5 10 5.7 13.7 9.9c1.5 1.7 2.5 3.3 3.3 5 .8 1.2 1.5 2.4 2.2 3.7l7.1-.2H126l-14.6 36.4zm27.2-42.4c-3.5-8.6-8.6-16-15.2-22.2a64.98 64.98 0 0 0-23.2-14.4C91.3 1.7 81.9 0 72 0c-9.9 0-19.4 1.7-28.4 5.2a69.4 69.4 0 0 0-23.1 14.4A66.2 66.2 0 0 0 5.4 41.9 69 69 0 0 0 0 69a69 69 0 0 0 5.4 27.1c3.6 8.6 8.6 16 15.1 22.2 6.6 6.3 14.3 11.1 23.1 14.5 9 3.4 18.4 5.1 28.4 5.1 9.9 0 19.3-1.7 28.3-5.1 9-3.5 16.6-8.3 23.2-14.5a65.6 65.6 0 0 0 15.2-22.2c3.6-8.6 5.4-17.6 5.4-27.1-.1-9.5-1.9-18.6-5.5-27.1z" fill-rule="evenodd" clip-rule="evenodd" fill="#0c308c"/></svg>