<svg xmlns="http://www.w3.org/2000/svg" viewBox="0 0 144 138"><path d="M138.6 41.9c-3.5-8.6-8.6-16-15.2-22.2a64.98 64.98 0 0 0-23.2-14.4C91.3 1.7 81.9 0 72 0c-9.9 0-19.4 1.7-28.4 5.2a69.4 69.4 0 0 0-23.1 14.4A66.2 66.2 0 0 0 5.4 41.9 69 69 0 0 0 0 69a69 69 0 0 0 5.4 27.1c3.6 8.6 8.6 16 15.1 22.2 6.6 6.3 14.3 11.1 23.1 14.5 9 3.4 18.4 5.1 28.4 5.1 9.9 0 19.3-1.7 28.3-5.1 9-3.5 16.6-8.3 23.2-14.5a65.6 65.6 0 0 0 15.2-22.2c3.6-8.6 5.4-17.6 5.4-27.1-.1-9.5-1.9-18.6-5.5-27.1z" fill-rule="evenodd" clip-rule="evenodd" fill="#0c308c"/></svg>