<?xml version="1.0" encoding="utf-8"?>
<!-- Generator: Adobe Illustrator 22.0.1, SVG Export Plug-In . SVG Version: 6.00 Build 0)  -->
<svg version="1.1" id="Слой_1" xmlns="http://www.w3.org/2000/svg" xmlns:xlink="http://www.w3.org/1999/xlink" x="0px" y="0px"
	 viewBox="0 0 144 138" style="enable-background:new 0 0 144 138;" xml:space="preserve">
<style type="text/css">
	.st0{fill-rule:evenodd;clip-rule:evenodd;fill:#0C308C;}
</style>
<path class="st0" d="M138.6,41.9c-3.5-8.6-8.6-16-15.2-22.2c-6.5-6.3-14.2-11.1-23.2-14.4C91.3,1.7,81.9,0,72,0
	c-9.9,0-19.4,1.7-28.4,5.2c-8.9,3.4-16.5,8.2-23.1,14.4C14,25.9,9,33.3,5.4,41.9C1.8,50.4,0,59.5,0,69c0,9.5,1.8,18.6,5.4,27.1
	c3.6,8.6,8.6,16,15.1,22.2c6.6,6.3,14.3,11.1,23.1,14.5c9,3.4,18.4,5.1,28.4,5.1c9.9,0,19.3-1.7,28.3-5.1c9-3.5,16.6-8.3,23.2-14.5
	c6.6-6.3,11.6-13.7,15.2-22.2c3.6-8.6,5.4-17.6,5.4-27.1C144,59.5,142.2,50.4,138.6,41.9L138.6,41.9z"/>
</svg>
