<svg xmlns="http://www.w3.org/2000/svg" viewBox="0 0 107 87"><path d="M92.4 58.3c-.2.8-.5 1.5-.8 2.3-.6 1.5-1.2 2.9-1.9 4.2v.2a38.9 38.9 0 0 1-17.5 17.6c-.5.3-1 .7-1.6 1a43.75 43.75 0 0 1-17 3.4h-.1c-1.4 0-2.8-.1-4.2-.2-4.4-.4-8.7-1.5-12.8-3.2-5.4-2.4-10-5.8-13.7-10-2.3-2.7-4.2-5.6-5.8-8.7l-6.9.1H0l14.7-36.8c1.7-5.6 4.4-10.5 8.2-14.8 3.7-4.3 8.3-7.6 13.7-9.9a43.1 43.1 0 0 1 34 0c5.4 2.3 10 5.7 13.7 9.9 1.5 1.7 2.5 3.3 3.3 5 .8 1.2 1.5 2.4 2.2 3.7l7.1-.2H107L92.4 58.3z" fill-rule="evenodd" clip-rule="evenodd" fill="#fff"/></svg>